<?xml version="1.0" encoding="utf-8"?>
<!-- Generator: Adobe Illustrator 24.1.1, SVG Export Plug-In . SVG Version: 6.00 Build 0)  -->
<svg version="1.1"
	 id="svg8" xmlns:cc="http://creativecommons.org/ns#" xmlns:dc="http://purl.org/dc/elements/1.1/" xmlns:inkscape="http://www.inkscape.org/namespaces/inkscape" xmlns:rdf="http://www.w3.org/1999/02/22-rdf-syntax-ns#" xmlns:sodipodi="http://sodipodi.sourceforge.net/DTD/sodipodi-0.dtd" xmlns:svg="http://www.w3.org/2000/svg"
	 xmlns="http://www.w3.org/2000/svg" xmlns:xlink="http://www.w3.org/1999/xlink" x="0px" y="0px" viewBox="0 0 640 480"
	 style="enable-background:new 0 0 640 480;" xml:space="preserve">
<style type="text/css">
	.st0{fill:#FFFFFF;stroke:#FFFBFF;stroke-width:0.2899;stroke-miterlimit:11.3386;}
</style>
<sodipodi:namedview  bordercolor="#666666" borderopacity="1.0" id="base" inkscape:current-layer="layer1" inkscape:cx="698.3986" inkscape:cy="179.83002" inkscape:document-units="mm" inkscape:pageopacity="0.0" inkscape:pageshadow="2" inkscape:window-height="1699" inkscape:window-maximized="1" inkscape:window-width="2736" inkscape:window-x="-13" inkscape:window-y="-13" inkscape:zoom="0.7" pagecolor="#ffffff" showgrid="false">
	</sodipodi:namedview>
	<g transform="scale(2.5)">
		<g id="layer1" transform="translate(-136.5, -110)" inkscape:groupmode="layer" inkscape:label="Layer 1">
			<rect id="rect3713" x="149.5" y="97.7" class="st0" width="231" height="216"/>
			<path id="path4531" inkscape:connector-curvature="0" d="M165.8,206.5v-48.1l21.5,0c13,0,22.1,0.1,23,0.2c3.4,0.4,5.7,1.4,8.4,3.5
			c4.2,3.2,7,7.4,8.8,13.5c1.1,3.7,1.7,6.9,1.9,11.1c0.4,7.7-1.4,16.4-4.5,21.9c-2.9,5-6.8,8.5-11.4,9.9l-1.4,0.4l8.7,17.7
			c4.8,9.7,8.7,17.8,8.7,17.9c0,0.1-5.7,0.1-12.6,0.1h-12.6l-1.6-3.4c-0.9-1.9-4.6-10-8.4-18l-6.8-14.7l-0.1,8.3
			c0,4.6-0.1,12.7-0.1,18l0,9.8h-10.7h-10.7L165.8,206.5z M207.4,190.9v-2.1h-10.5h-10.5v2.1v2.1h10.5h10.5V190.9z M233.7,241.1
			c1.9-7.4,6.2-24.1,9.5-37c3.3-12.9,6.4-24.8,6.9-26.4c1.6-5.1,3.3-9,5.4-12.3c1.5-2.3,2.4-3.4,3.9-4.8c2-1.8,4.3-3.1,6.8-3.5
			c1.9-0.4,5.2-0.1,6.8,0.5c3.4,1.3,6,3.5,8.5,7.3c2.7,4,4.8,9,6.5,15.4c0.7,2.4,18.6,73.4,18.7,74.1c0.1,0.3-0.5,0.3-11.2,0.3h-11.3
			l-2.5-10.4l-2.5-10.4l-10.9,0l-10.9,0l-2.5,10.3l-2.5,10.3h-11.2h-11.2L233.7,241.1z M272.3,205.3c0-0.4-4-16.4-4-16.3
			c-0.1,0.1-3.8,15.4-3.9,16.1c-0.1,0.3,0.2,0.3,3.9,0.3C270.5,205.4,272.3,205.3,272.3,205.3L272.3,205.3z M309,206.5v-48.1h27.6
			h27.6v14.8v14.8h-16.9h-16.9v2.1v2.1h16.9h16.9v14.8v14.8h-16.9h-16.9v16.5v16.5h-10.7H309L309,206.5z"/>
		</g>
	</g>
</svg>
