<?xml version="1.0" encoding="UTF-8"?>
<svg xmlns="http://www.w3.org/2000/svg" xmlns:xlink="http://www.w3.org/1999/xlink" width="120px" height="48px" viewBox="0 0 120 36" version="1.1">
<defs>
<radialGradient id="radial0" gradientUnits="userSpaceOnUse" cx="-136.91486" cy="268.8782" fx="-136.91486" fy="268.8782" r="284.38135" gradientTransform="matrix(0.0473878,-0.00829503,0.0102653,0.0586297,48.048257,-6.364265)">
<stop offset="0" style="stop-color:rgb(0.392157%,61.568627%,79.607843%);stop-opacity:1;"/>
<stop offset="0.310746" style="stop-color:rgb(0.392157%,61.568627%,79.607843%);stop-opacity:1;"/>
<stop offset="0.498104" style="stop-color:rgb(0.392157%,61.568627%,79.607843%);stop-opacity:1;"/>
<stop offset="1" style="stop-color:rgb(100%,100%,100%);stop-opacity:1;"/>
</radialGradient>
<radialGradient id="radial1" gradientUnits="userSpaceOnUse" cx="443.06177" cy="-0.177749" fx="443.06177" fy="-0.177749" r="245.05106" gradientTransform="matrix(0.00866285,0.0906148,-0.0730376,0.0069925,23.101306,-31.729791)">
<stop offset="0" style="stop-color:rgb(0.392157%,61.568627%,79.607843%);stop-opacity:1;"/>
<stop offset="0.567439" style="stop-color:rgb(0.392157%,61.568627%,79.607843%);stop-opacity:0.741176;"/>
<stop offset="1" style="stop-color:rgb(0.392157%,61.568627%,79.607843%);stop-opacity:0;"/>
</radialGradient>
</defs>
<g id="surface1">
<path style=" stroke:none;fill-rule:nonzero;fill:url(#radial0);" d="M 54.328125 10.050781 C 56.914062 10.089844 56.558594 14.59375 53.289062 14.617188 C 60.984375 14.71875 60.886719 3.445312 53.476562 3.234375 C 45.816406 3.097656 46.675781 3.152344 38.367188 3.207031 C 33.347656 3.652344 28.382812 6 26.046875 10 C 30.664062 10.066406 48.03125 10.074219 54.328125 10.050781 Z M 54.328125 10.050781 "/>
<path style=" stroke:none;fill-rule:nonzero;fill:url(#radial1);" d="M 24.882812 10.054688 L 54.289062 10.054688 C 51.421875 9.441406 52.328125 4.964844 53.4375 3.242188 L 38.464844 3.210938 C 32.171875 3.175781 27.195312 7.140625 24.882812 10.054688 Z M 24.882812 10.054688 "/>
<path style=" stroke:none;fill-rule:nonzero;fill:rgb(0.392157%,61.568627%,79.607843%);fill-opacity:1;" d="M 53.550781 3.234375 C 57.4375 3.296875 59.367188 6.746094 58.984375 9.828125 C 58.71875 11.984375 57.292969 14.371094 53.3125 14.617188 L 15.703125 14.667969 C 11.515625 14.769531 6.246094 16.546875 2.671875 21.480469 L 51.3125 21.480469 C 58.671875 21.730469 63.003906 15.585938 63.039062 10.695312 C 63.078125 5.75 58.875 3.261719 55.953125 3.242188 C 54.492188 3.234375 54.652344 3.21875 53.550781 3.234375 Z M 53.550781 3.234375 "/>
<path style=" stroke:none;fill-rule:nonzero;fill:rgb(0.392157%,61.568627%,79.607843%);fill-opacity:1;" d="M 22.050781 26.046875 L 75.683594 26.039062 C 74.601562 27.394531 69.679688 32.925781 62.300781 32.929688 L 33.371094 32.898438 C 25.78125 32.898438 23.496094 28.179688 22.050781 26.046875 Z M 22.050781 26.046875 "/>
<path style=" stroke:none;fill-rule:nonzero;fill:rgb(0.392157%,61.568627%,79.607843%);fill-opacity:1;" d="M 68.597656 21.28125 C 68.363281 21.164062 68.238281 21.046875 68.117188 20.839844 C 67.972656 20.59375 67.953125 20.507812 67.960938 20.050781 C 67.96875 19.472656 68.15625 18.515625 68.351562 18.070312 C 68.507812 17.703125 69.011719 17.226562 69.347656 17.125 C 69.601562 17.046875 70.550781 17.035156 70.804688 17.105469 C 70.898438 17.132812 70.960938 17.199219 70.972656 17.28125 C 71.007812 17.535156 70.90625 17.578125 70.332031 17.546875 C 69.25 17.484375 68.898438 17.796875 68.640625 19.039062 C 68.316406 20.613281 68.550781 21.011719 69.761719 20.921875 C 70.0625 20.902344 70.324219 20.90625 70.339844 20.933594 C 70.398438 21.027344 70.3125 21.304688 70.210938 21.34375 C 70.15625 21.367188 69.84375 21.398438 69.511719 21.414062 C 68.953125 21.441406 68.890625 21.429688 68.597656 21.28125 Z M 88.828125 21.289062 C 88.46875 21.121094 88.292969 20.875 88.195312 20.402344 C 88.144531 20.132812 88.15625 19.949219 88.261719 19.304688 C 88.425781 18.34375 88.570312 17.949219 88.882812 17.605469 C 89.230469 17.230469 89.523438 17.097656 90.070312 17.066406 C 91.054688 17.007812 91.523438 17.429688 91.523438 18.371094 C 91.519531 18.941406 91.300781 20.039062 91.105469 20.449219 C 90.714844 21.285156 89.652344 21.671875 88.828125 21.289062 Z M 89.859375 20.882812 C 90.378906 20.753906 90.648438 20.339844 90.839844 19.394531 C 91.070312 18.246094 90.980469 17.746094 90.511719 17.589844 C 89.980469 17.417969 89.394531 17.671875 89.128906 18.199219 C 88.921875 18.605469 88.730469 19.609375 88.757812 20.125 C 88.78125 20.578125 88.917969 20.792969 89.25 20.886719 C 89.503906 20.960938 89.554688 20.960938 89.859375 20.882812 Z M 95.914062 21.382812 C 95.722656 21.351562 95.667969 21.3125 95.652344 21.203125 C 95.617188 20.9375 95.726562 20.894531 96.324219 20.929688 C 96.976562 20.972656 97.332031 20.894531 97.574219 20.652344 C 97.769531 20.457031 97.804688 20.105469 97.652344 19.886719 C 97.601562 19.8125 97.304688 19.578125 96.992188 19.359375 C 96.363281 18.921875 96.214844 18.765625 96.113281 18.417969 C 96.023438 18.128906 96.121094 17.695312 96.320312 17.480469 C 96.601562 17.183594 96.886719 17.089844 97.609375 17.0625 C 98.605469 17.027344 98.867188 17.109375 98.703125 17.410156 C 98.652344 17.507812 98.546875 17.523438 97.847656 17.542969 C 96.972656 17.566406 96.761719 17.640625 96.683594 17.945312 C 96.585938 18.324219 96.679688 18.449219 97.460938 18.988281 C 98.105469 19.429688 98.292969 19.65625 98.328125 20.046875 C 98.382812 20.59375 98.164062 20.976562 97.664062 21.234375 C 97.398438 21.367188 97.265625 21.394531 96.753906 21.40625 C 96.421875 21.414062 96.046875 21.40625 95.914062 21.382812 Z M 71.007812 21.285156 C 70.976562 21.203125 71.078125 20.546875 71.523438 18.011719 C 71.679688 17.136719 71.679688 17.132812 71.851562 17.089844 C 72.21875 16.996094 72.242188 17.121094 72.0625 18.097656 C 72 18.453125 71.960938 18.769531 71.976562 18.800781 C 71.996094 18.828125 72.425781 18.851562 72.929688 18.851562 C 73.703125 18.851562 73.855469 18.835938 73.886719 18.761719 C 73.90625 18.710938 73.976562 18.339844 74.046875 17.933594 C 74.167969 17.195312 74.238281 17.050781 74.46875 17.050781 C 74.746094 17.050781 74.742188 17.140625 74.375 19.230469 C 74.1875 20.328125 74.003906 21.257812 73.96875 21.296875 C 73.9375 21.339844 73.8125 21.371094 73.699219 21.371094 L 73.488281 21.371094 L 73.519531 21.058594 C 73.535156 20.882812 73.597656 20.46875 73.65625 20.136719 C 73.714844 19.804688 73.746094 19.488281 73.726562 19.433594 C 73.691406 19.34375 73.574219 19.332031 72.785156 19.332031 C 72.117188 19.332031 71.871094 19.351562 71.851562 19.40625 C 71.835938 19.449219 71.75 19.902344 71.660156 20.414062 L 71.492188 21.34375 L 71.269531 21.359375 C 71.105469 21.375 71.03125 21.351562 71.007812 21.285156 Z M 74.925781 21.296875 C 74.894531 21.210938 75.433594 18.132812 75.539062 17.816406 C 75.730469 17.238281 76.082031 17.054688 77 17.054688 C 77.539062 17.050781 77.691406 17.074219 77.890625 17.175781 C 78.15625 17.3125 78.304688 17.570312 78.304688 17.902344 C 78.304688 18.207031 77.761719 21.210938 77.691406 21.296875 C 77.605469 21.402344 77.289062 21.390625 77.246094 21.285156 C 77.226562 21.234375 77.269531 20.855469 77.339844 20.441406 C 77.410156 20.027344 77.449219 19.660156 77.429688 19.628906 C 77.386719 19.558594 75.800781 19.554688 75.757812 19.625 C 75.742188 19.652344 75.667969 20.023438 75.597656 20.449219 C 75.527344 20.875 75.441406 21.257812 75.40625 21.296875 C 75.375 21.339844 75.261719 21.371094 75.152344 21.371094 C 75.042969 21.371094 74.941406 21.339844 74.925781 21.296875 Z M 77.625 18.765625 C 77.667969 18.601562 77.714844 18.316406 77.738281 18.132812 C 77.792969 17.632812 77.71875 17.566406 77.074219 17.542969 C 76.484375 17.515625 76.238281 17.589844 76.113281 17.828125 C 76.015625 18.023438 75.832031 18.960938 75.878906 19.039062 C 75.898438 19.070312 76.273438 19.089844 76.734375 19.078125 L 77.554688 19.0625 Z M 78.664062 21.207031 C 78.660156 20.921875 79.265625 17.511719 79.351562 17.3125 C 79.445312 17.097656 79.679688 17.015625 80.011719 17.078125 C 80.25 17.121094 80.285156 17.199219 80.464844 18.074219 C 80.632812 18.90625 80.699219 19.152344 80.753906 19.152344 C 80.777344 19.152344 81.039062 18.71875 81.328125 18.191406 C 81.621094 17.664062 81.894531 17.203125 81.933594 17.171875 C 81.976562 17.136719 82.144531 17.09375 82.308594 17.074219 C 82.5625 17.042969 82.628906 17.058594 82.738281 17.164062 C 82.820312 17.25 82.855469 17.339844 82.835938 17.429688 C 82.816406 17.503906 82.667969 18.359375 82.5 19.332031 C 82.335938 20.304688 82.175781 21.164062 82.144531 21.238281 C 82.097656 21.339844 82.035156 21.371094 81.882812 21.371094 C 81.769531 21.371094 81.664062 21.339844 81.648438 21.296875 C 81.636719 21.257812 81.753906 20.507812 81.910156 19.632812 C 82.066406 18.757812 82.199219 17.976562 82.199219 17.894531 C 82.203125 17.765625 82.191406 17.757812 82.117188 17.835938 C 82.070312 17.882812 81.824219 18.285156 81.574219 18.730469 C 81.324219 19.179688 81.0625 19.589844 80.996094 19.648438 C 80.847656 19.769531 80.527344 19.785156 80.390625 19.675781 C 80.328125 19.628906 80.222656 19.285156 80.105469 18.730469 C 79.921875 17.886719 79.839844 17.660156 79.777344 17.835938 C 79.761719 17.882812 79.625 18.636719 79.476562 19.511719 C 79.324219 20.386719 79.1875 21.164062 79.171875 21.238281 C 79.144531 21.351562 79.101562 21.371094 78.902344 21.371094 C 78.683594 21.371094 78.664062 21.359375 78.664062 21.207031 Z M 83.074219 21.3125 C 83.054688 21.28125 83.171875 20.492188 83.335938 19.558594 C 83.5 18.625 83.652344 17.730469 83.675781 17.570312 C 83.746094 17.09375 83.824219 17.050781 84.648438 17.050781 C 85.480469 17.054688 85.742188 17.113281 86.023438 17.371094 C 86.542969 17.851562 86.339844 18.980469 85.660156 19.40625 C 85.355469 19.59375 85.148438 19.640625 84.425781 19.6875 L 83.855469 19.722656 L 83.722656 20.484375 C 83.652344 20.90625 83.574219 21.277344 83.554688 21.308594 C 83.503906 21.390625 83.121094 21.390625 83.074219 21.3125 Z M 85.261719 19.058594 C 85.550781 18.886719 85.695312 18.660156 85.730469 18.320312 C 85.789062 17.675781 85.625 17.53125 84.820312 17.53125 C 84.390625 17.53125 84.296875 17.550781 84.253906 17.636719 C 84.167969 17.808594 83.984375 19.011719 84.027344 19.125 C 84.058594 19.214844 84.132812 19.222656 84.566406 19.199219 C 84.914062 19.183594 85.125 19.140625 85.261719 19.058594 Z M 86.566406 21.292969 C 86.539062 21.222656 86.800781 19.644531 87.136719 17.863281 C 87.265625 17.183594 87.28125 17.140625 87.4375 17.085938 C 87.570312 17.042969 87.625 17.050781 87.703125 17.125 C 87.792969 17.21875 87.777344 17.371094 87.453125 19.195312 C 87.265625 20.277344 87.082031 21.210938 87.054688 21.265625 C 86.988281 21.394531 86.613281 21.414062 86.566406 21.292969 Z M 91.890625 21.308594 C 91.839844 21.222656 92.53125 17.308594 92.621094 17.183594 C 92.683594 17.097656 92.835938 17.078125 93.613281 17.0625 C 94.480469 17.046875 94.546875 17.054688 94.804688 17.1875 C 95.144531 17.363281 95.34375 17.722656 95.34375 18.160156 C 95.34375 18.417969 95.039062 20.335938 94.878906 21.101562 C 94.832031 21.324219 94.8125 21.34375 94.605469 21.359375 C 94.445312 21.375 94.371094 21.351562 94.347656 21.285156 C 94.324219 21.230469 94.421875 20.558594 94.554688 19.785156 C 94.835938 18.210938 94.839844 18.136719 94.710938 17.863281 C 94.582031 17.589844 94.40625 17.53125 93.71875 17.53125 C 93.15625 17.53125 93.117188 17.539062 93.0625 17.667969 C 93.03125 17.742188 92.871094 18.578125 92.707031 19.53125 C 92.542969 20.480469 92.390625 21.285156 92.371094 21.316406 C 92.324219 21.390625 91.941406 21.386719 91.890625 21.308594 Z M 98.914062 21.3125 C 98.882812 21.265625 99.023438 20.390625 99.503906 17.640625 C 99.542969 17.417969 99.601562 17.210938 99.632812 17.179688 C 99.746094 17.078125 99.941406 17.050781 100.042969 17.128906 C 100.136719 17.199219 100.136719 17.242188 100.023438 17.832031 C 99.957031 18.179688 99.902344 18.550781 99.902344 18.65625 L 99.902344 18.851562 L 100.828125 18.851562 C 101.339844 18.851562 101.769531 18.832031 101.785156 18.804688 C 101.800781 18.78125 101.871094 18.4375 101.941406 18.042969 C 102.105469 17.121094 102.101562 17.128906 102.269531 17.089844 C 102.484375 17.035156 102.601562 17.105469 102.601562 17.285156 C 102.601562 17.425781 102.066406 20.625 101.953125 21.132812 C 101.914062 21.320312 101.886719 21.34375 101.6875 21.359375 C 101.523438 21.375 101.453125 21.351562 101.425781 21.285156 C 101.40625 21.230469 101.460938 20.792969 101.542969 20.3125 C 101.628906 19.828125 101.683594 19.410156 101.667969 19.382812 C 101.613281 19.296875 99.867188 19.320312 99.796875 19.40625 C 99.761719 19.449219 99.667969 19.878906 99.582031 20.367188 C 99.5 20.851562 99.414062 21.277344 99.394531 21.3125 C 99.347656 21.390625 98.960938 21.390625 98.914062 21.3125 Z M 102.902344 21.203125 C 102.902344 21.113281 102.996094 20.511719 103.113281 19.871094 C 103.226562 19.226562 103.382812 18.355469 103.453125 17.933594 C 103.59375 17.109375 103.65625 17.003906 103.957031 17.078125 C 104.152344 17.125 104.148438 17.179688 103.863281 18.792969 C 103.730469 19.535156 103.582031 20.371094 103.53125 20.652344 C 103.402344 21.390625 103.410156 21.371094 103.140625 21.371094 C 102.921875 21.371094 102.902344 21.359375 102.902344 21.203125 Z M 104.382812 21.28125 C 104.363281 21.234375 104.359375 21.160156 104.375 21.117188 C 104.386719 21.074219 104.550781 20.179688 104.734375 19.121094 C 104.988281 17.644531 105.089844 17.183594 105.167969 17.121094 C 105.246094 17.0625 105.476562 17.050781 106.082031 17.066406 C 106.78125 17.082031 106.929688 17.105469 107.148438 17.21875 C 107.519531 17.414062 107.667969 17.738281 107.621094 18.234375 C 107.53125 19.238281 106.902344 19.691406 105.617188 19.691406 C 105.167969 19.691406 105.171875 19.683594 105.035156 20.53125 C 104.976562 20.878906 104.90625 21.210938 104.875 21.265625 C 104.804688 21.402344 104.429688 21.414062 104.382812 21.28125 Z M 106.378906 19.152344 C 107.0625 18.957031 107.347656 17.902344 106.792969 17.617188 C 106.667969 17.554688 106.472656 17.53125 106.097656 17.546875 L 105.574219 17.5625 L 105.429688 18.296875 C 105.351562 18.699219 105.304688 19.070312 105.324219 19.121094 C 105.367188 19.230469 106.042969 19.25 106.378906 19.152344 Z M 75.875 15.316406 C 75.292969 15.171875 74.796875 14.773438 74.542969 14.242188 C 74.3125 13.765625 74.285156 13.007812 74.457031 12.101562 C 74.675781 10.980469 74.875 10.496094 75.324219 9.996094 C 75.855469 9.402344 76.710938 9.097656 77.671875 9.152344 C 78.351562 9.1875 78.703125 9.3125 79.074219 9.644531 C 79.457031 9.988281 79.683594 10.488281 79.722656 11.070312 C 79.765625 11.679688 79.460938 13.191406 79.175781 13.78125 C 78.78125 14.59375 78.183594 15.082031 77.335938 15.28125 C 76.9375 15.375 76.183594 15.390625 75.875 15.316406 Z M 77.417969 13.898438 C 77.792969 13.632812 77.972656 13.226562 78.160156 12.222656 C 78.296875 11.496094 78.308594 11.34375 78.246094 11.074219 C 78.144531 10.617188 77.855469 10.390625 77.363281 10.394531 C 76.820312 10.394531 76.386719 10.703125 76.144531 11.246094 C 75.984375 11.609375 75.785156 12.652344 75.785156 13.121094 C 75.785156 13.824219 76.101562 14.136719 76.789062 14.097656 C 77.085938 14.082031 77.214844 14.039062 77.417969 13.898438 Z M 95.011719 15.332031 C 94.605469 15.242188 94.242188 15.035156 93.972656 14.742188 C 93.628906 14.363281 93.484375 13.964844 93.484375 13.382812 C 93.484375 12.863281 94.058594 9.511719 94.179688 9.324219 C 94.265625 9.195312 94.300781 9.1875 94.84375 9.207031 C 95.308594 9.21875 95.433594 9.242188 95.484375 9.324219 C 95.53125 9.402344 95.46875 9.875 95.234375 11.214844 C 94.832031 13.496094 94.832031 13.820312 95.230469 14.027344 C 95.492188 14.160156 96.050781 14.136719 96.367188 13.976562 C 96.835938 13.738281 96.925781 13.496094 97.320312 11.292969 C 97.507812 10.242188 97.695312 9.339844 97.738281 9.285156 C 97.800781 9.214844 97.9375 9.191406 98.347656 9.191406 C 99.003906 9.191406 99.0625 9.214844 99.0625 9.457031 C 99.0625 9.710938 98.484375 12.976562 98.367188 13.390625 C 98.074219 14.410156 97.429688 15.054688 96.476562 15.28125 C 96.121094 15.363281 95.292969 15.394531 95.011719 15.332031 Z M 101.167969 15.277344 C 100.785156 15.175781 100.542969 15.035156 100.28125 14.761719 C 99.699219 14.15625 99.671875 13.441406 100.128906 10.964844 C 100.363281 9.710938 100.453125 9.332031 100.539062 9.269531 C 100.648438 9.191406 101.542969 9.15625 101.726562 9.230469 C 101.871094 9.28125 101.851562 9.488281 101.546875 11.140625 C 101.398438 11.96875 101.257812 12.875 101.242188 13.160156 C 101.210938 13.664062 101.214844 13.679688 101.382812 13.867188 C 101.523438 14.023438 101.617188 14.066406 101.902344 14.105469 C 102.089844 14.132812 102.273438 14.179688 102.308594 14.214844 C 102.386719 14.292969 102.265625 15.046875 102.144531 15.238281 C 102.078125 15.347656 102.007812 15.371094 101.777344 15.367188 C 101.621094 15.367188 101.347656 15.324219 101.167969 15.277344 Z M 104.820312 15.289062 C 104.152344 15.109375 103.695312 14.683594 103.5 14.0625 C 103.320312 13.472656 103.363281 12.742188 103.660156 11.441406 C 104.085938 9.59375 105.429688 8.867188 107.773438 9.21875 C 108.570312 9.339844 108.898438 9.429688 108.957031 9.546875 C 108.988281 9.605469 108.890625 10.324219 108.6875 11.472656 C 108.507812 12.480469 108.304688 13.652344 108.230469 14.078125 C 108.144531 14.589844 108.066406 14.890625 108 14.957031 C 107.703125 15.253906 105.527344 15.480469 104.820312 15.289062 Z M 106.738281 14.082031 C 106.769531 14.050781 106.933594 13.230469 107.101562 12.261719 C 107.339844 10.898438 107.394531 10.480469 107.339844 10.417969 C 107.289062 10.355469 107.113281 10.332031 106.671875 10.332031 C 105.996094 10.332031 105.75 10.421875 105.4375 10.773438 C 105.210938 11.035156 105.097656 11.371094 104.945312 12.289062 C 104.746094 13.484375 104.785156 13.769531 105.183594 14.039062 C 105.378906 14.171875 105.441406 14.179688 106.035156 14.160156 C 106.390625 14.152344 106.703125 14.117188 106.738281 14.082031 Z M 113.441406 15.273438 C 112.199219 14.894531 111.789062 13.847656 112.160156 12.011719 C 112.246094 11.597656 112.371094 11.109375 112.441406 10.925781 C 112.898438 9.703125 113.949219 9.070312 115.398438 9.148438 C 116.296875 9.199219 116.851562 9.554688 117.199219 10.3125 C 117.316406 10.570312 117.332031 10.695312 117.328125 11.414062 C 117.324219 11.949219 117.296875 12.304688 117.238281 12.460938 L 117.152344 12.703125 L 115.34375 12.730469 C 114.347656 12.75 113.511719 12.78125 113.488281 12.804688 C 113.464844 12.828125 113.445312 12.992188 113.445312 13.167969 C 113.445312 13.613281 113.585938 13.855469 113.929688 14.007812 C 114.195312 14.125 114.28125 14.128906 115.421875 14.089844 C 116.253906 14.0625 116.648438 14.070312 116.675781 14.113281 C 116.742188 14.226562 116.582031 14.996094 116.46875 15.097656 C 116.210938 15.332031 114.035156 15.457031 113.441406 15.273438 Z M 115.894531 11.652344 C 115.96875 11.53125 115.933594 11.003906 115.835938 10.816406 C 115.511719 10.1875 114.382812 10.277344 113.949219 10.964844 C 113.757812 11.261719 113.667969 11.550781 113.734375 11.652344 C 113.78125 11.734375 115.84375 11.734375 115.894531 11.652344 Z M 68.992188 15.265625 C 68.9375 15.253906 68.878906 15.207031 68.859375 15.15625 C 68.839844 15.109375 68.917969 14.550781 69.03125 13.917969 C 69.144531 13.28125 69.316406 12.28125 69.421875 11.695312 C 69.636719 10.453125 69.757812 10.085938 70.0625 9.773438 C 70.550781 9.269531 70.980469 9.179688 72.8125 9.203125 L 74.132812 9.222656 L 74.121094 9.664062 C 74.101562 10.414062 74.144531 10.390625 72.707031 10.394531 C 71.863281 10.394531 71.449219 10.417969 71.347656 10.46875 C 71.140625 10.574219 71 10.847656 70.953125 11.246094 L 70.910156 11.59375 L 71.890625 11.59375 C 72.429688 11.59375 72.9375 11.609375 73.015625 11.632812 C 73.152344 11.667969 73.15625 11.6875 73.125 12.042969 C 73.105469 12.246094 73.058594 12.484375 73.015625 12.574219 L 72.945312 12.730469 L 71.847656 12.730469 C 71.050781 12.730469 70.738281 12.753906 70.707031 12.804688 C 70.679688 12.84375 70.574219 13.375 70.464844 13.984375 C 70.359375 14.59375 70.234375 15.125 70.191406 15.164062 C 70.117188 15.234375 69.214844 15.3125 68.992188 15.265625 Z M 80.449219 15.265625 C 80.371094 15.25 80.34375 15.183594 80.34375 15.023438 C 80.34375 14.652344 81.230469 9.730469 81.316406 9.628906 C 81.503906 9.398438 82.335938 9.199219 83.3125 9.148438 C 84.144531 9.105469 84.15625 9.117188 84.054688 9.730469 C 84.015625 9.96875 83.949219 10.195312 83.910156 10.238281 C 83.863281 10.28125 83.585938 10.328125 83.246094 10.351562 C 82.925781 10.375 82.636719 10.414062 82.609375 10.445312 C 82.5625 10.488281 82.386719 11.421875 81.855469 14.460938 C 81.792969 14.835938 81.714844 15.164062 81.683594 15.191406 C 81.632812 15.242188 80.628906 15.300781 80.449219 15.265625 Z M 84.136719 15.21875 C 84.046875 15.152344 84.070312 14.964844 84.417969 13 C 84.625 11.816406 84.835938 10.742188 84.882812 10.609375 C 85.109375 9.964844 85.53125 9.523438 86.144531 9.296875 C 86.445312 9.183594 86.617188 9.164062 87.363281 9.164062 C 88.199219 9.164062 88.246094 9.167969 88.554688 9.328125 L 88.878906 9.496094 L 89.277344 9.332031 C 89.59375 9.207031 89.800781 9.167969 90.304688 9.144531 C 91.078125 9.113281 91.527344 9.199219 91.90625 9.453125 C 92.3125 9.726562 92.472656 10.066406 92.476562 10.671875 C 92.484375 11.261719 91.832031 15.054688 91.703125 15.191406 C 91.644531 15.257812 91.472656 15.285156 91.097656 15.292969 C 90.523438 15.300781 90.363281 15.25 90.363281 15.066406 C 90.363281 15 90.527344 14.011719 90.726562 12.871094 C 91.128906 10.585938 91.132812 10.523438 90.769531 10.394531 C 90.503906 10.304688 89.964844 10.316406 89.761719 10.421875 C 89.664062 10.472656 89.539062 10.601562 89.484375 10.707031 C 89.429688 10.8125 89.21875 11.855469 89.011719 13.023438 C 88.804688 14.191406 88.609375 15.171875 88.578125 15.203125 C 88.511719 15.269531 88.382812 15.277344 87.746094 15.261719 C 87.378906 15.253906 87.246094 15.230469 87.222656 15.164062 C 87.203125 15.117188 87.351562 14.167969 87.546875 13.058594 C 87.742188 11.945312 87.902344 10.949219 87.902344 10.839844 C 87.902344 10.734375 87.851562 10.582031 87.789062 10.503906 C 87.691406 10.386719 87.613281 10.363281 87.234375 10.347656 C 86.710938 10.324219 86.449219 10.445312 86.308594 10.785156 C 86.261719 10.898438 86.058594 11.917969 85.859375 13.046875 C 85.652344 14.207031 85.460938 15.136719 85.417969 15.183594 C 85.308594 15.292969 84.277344 15.320312 84.136719 15.21875 Z M 109.722656 13.015625 C 109.613281 12.9375 109.613281 12.914062 109.710938 12.308594 C 109.859375 11.414062 109.859375 11.414062 110.546875 11.414062 C 111.285156 11.414062 111.28125 11.40625 111.148438 12.21875 C 111.09375 12.570312 111.011719 12.902344 110.96875 12.957031 C 110.867188 13.097656 109.890625 13.144531 109.722656 13.015625 Z M 70.230469 7.3125 C 70.210938 7.265625 70.332031 6.472656 70.496094 5.542969 C 70.914062 3.15625 70.945312 3.117188 72.261719 3.082031 C 73.246094 3.054688 73.335938 3.074219 73.3125 3.328125 L 73.292969 3.523438 L 72.511719 3.550781 C 71.710938 3.582031 71.519531 3.636719 71.402344 3.855469 C 71.320312 4.011719 71.175781 4.757812 71.207031 4.855469 C 71.226562 4.914062 71.460938 4.933594 72.101562 4.933594 C 73.042969 4.933594 73.113281 4.957031 72.972656 5.265625 C 72.910156 5.40625 72.894531 5.410156 71.992188 5.425781 L 71.074219 5.441406 L 70.917969 6.320312 C 70.832031 6.804688 70.746094 7.242188 70.722656 7.296875 C 70.679688 7.417969 70.273438 7.429688 70.230469 7.3125 Z M 73.472656 7.316406 C 73.457031 7.277344 73.605469 6.335938 73.800781 5.230469 C 74.078125 3.699219 74.1875 3.203125 74.265625 3.148438 C 74.394531 3.050781 74.472656 3.054688 74.605469 3.148438 C 74.707031 3.222656 74.699219 3.300781 74.464844 4.636719 C 74.328125 5.410156 74.175781 6.285156 74.125 6.582031 C 74.003906 7.332031 73.972656 7.390625 73.710938 7.390625 C 73.59375 7.390625 73.488281 7.359375 73.472656 7.316406 Z M 74.96875 7.3125 C 74.929688 7.214844 75.457031 4.214844 75.574219 3.847656 C 75.679688 3.53125 75.960938 3.238281 76.257812 3.140625 C 76.589844 3.03125 77.636719 3.054688 77.878906 3.175781 C 78.203125 3.34375 78.324219 3.550781 78.320312 3.953125 C 78.320312 4.316406 77.859375 7.019531 77.761719 7.257812 C 77.71875 7.359375 77.65625 7.390625 77.5 7.390625 C 77.386719 7.390625 77.28125 7.355469 77.265625 7.3125 C 77.25 7.269531 77.296875 6.898438 77.367188 6.484375 C 77.441406 6.074219 77.492188 5.703125 77.476562 5.664062 C 77.460938 5.613281 77.21875 5.59375 76.652344 5.59375 C 75.945312 5.59375 75.839844 5.605469 75.792969 5.699219 C 75.761719 5.753906 75.6875 6.097656 75.628906 6.460938 C 75.484375 7.363281 75.472656 7.390625 75.214844 7.390625 C 75.09375 7.390625 74.988281 7.359375 74.96875 7.3125 Z M 77.570312 5.039062 C 77.648438 4.941406 77.761719 4.328125 77.761719 3.996094 C 77.761719 3.632812 77.628906 3.550781 77.027344 3.550781 C 76.472656 3.550781 76.230469 3.652344 76.117188 3.929688 C 76.011719 4.183594 75.882812 4.96875 75.933594 5.050781 C 75.988281 5.144531 77.492188 5.132812 77.570312 5.039062 Z M 77.570312 5.039062 "/>
<path style=" stroke:none;fill-rule:nonzero;fill:rgb(0.392157%,61.568627%,79.607843%);fill-opacity:1;" d="M 24.910156 10 L 45.578125 10.03125 C 42.710938 9.421875 43.585938 4.910156 44.695312 3.1875 L 38.496094 3.15625 C 32.199219 3.121094 27.222656 7.085938 24.910156 10 Z M 24.910156 10 "/>
</g>
</svg>
