<?xml version="1.0" encoding="utf-8"?>
<!-- Generator: Adobe Illustrator 26.0.1, SVG Export Plug-In . SVG Version: 6.00 Build 0)  -->
<svg version="1.1" id="Layer_1" xmlns="http://www.w3.org/2000/svg" xmlns:xlink="http://www.w3.org/1999/xlink" x="0px" y="0px"
	 viewBox="24 -1 200 60" style="enable-background:new 0 0 377.1 115.6;" xml:space="preserve"
	height="48px" width="120px">
<style type="text/css">
	.st0{fill:url(#SVGID_1_);}
	.st1{fill:url(#SVGID_00000141415553046129359490000013845613887120789381_);}
	.st2{fill:url(#SVGID_00000059286540523496409010000009402018381359529396_);}
	.st3{fill:url(#SVGID_00000163758539359775366390000013317334100611119020_);}
	.st4{fill:url(#SVGID_00000000181641663760289210000004668780036218580913_);}
	.st5{fill:#6F6F6E;}
	.st6{fill:url(#SVGID_00000182509164825242032130000013099551380399683462_);}
	.st7{fill:url(#SVGID_00000135669946329477790600000009108121880017527723_);}
	.st8{fill:#171B1C;}
	.st9{fill:#9D9D9C;}
	.st10{fill:#2E247A;}
	.st11{fill:#FFFFFF;}
	.st12{fill:#E20613;}
	.st13{fill:#E30613;}
	.st14{fill:#291F6C;}
	.st15{fill:#D50911;}
	.st16{fill:#F6F6F6;}
	.st17{fill:#CAC9C9;}
</style>
<linearGradient id="SVGID_1_" gradientUnits="userSpaceOnUse" x1="35.45" y1="92.365" x2="135.39" y2="92.365" gradientTransform="matrix(1 0 0 -1 0 121.42)">
	<stop  offset="0" style="stop-color:#6D6F6E"/>
	<stop  offset="1" style="stop-color:#CAC8C9"/>
</linearGradient>
<path class="st0" d="M126.1,14.4L135.4,0H85.9C69.9,0,62.3,14,62.3,14L45.8,41.4L35.4,58.1c10,0,16.5-1.8,21.2-4.3
	c3.6-2,6.6-5,8.8-8.5l6.5-9.9h33.1c6.3,0,11-5.3,11-5.3l7-9.8H81.1l3.8-5.8L126.1,14.4z"/>
<linearGradient id="SVGID_00000049913714023547720130000012389949913863298986_" gradientUnits="userSpaceOnUse" x1="79.155" y1="105.03" x2="79.155" y2="80.53" gradientTransform="matrix(1 0 0 -1 0 121.42)">
	<stop  offset="0" style="stop-color:#4D4D4D"/>
	<stop  offset="1" style="stop-color:#B8B8B8"/>
</linearGradient>
<path style="fill:url(#SVGID_00000049913714023547720130000012389949913863298986_);" d="M36.9,57.2c7.5-0.2,13.9-1.3,19.3-4.2
	c3.5-2,6.4-4.8,8.5-8.2l6.8-10.2h33.6c5.6,0,10-4.5,10.3-5s6-8.6,6-8.6H59.1L36.9,57.2z"/>
<linearGradient id="SVGID_00000082338740103184660610000005691046596419593088_" gradientUnits="userSpaceOnUse" x1="96.69" y1="99.81" x2="96.69" y2="113.99" gradientTransform="matrix(1 0 0 -1 0 121.42)">
	<stop  offset="0" style="stop-color:#6F6F6E"/>
	<stop  offset="1" style="stop-color:#CAC9C9"/>
</linearGradient>
<path style="fill:url(#SVGID_00000082338740103184660610000005691046596419593088_);" d="M125.6,13.7l8.3-12.8h-48
	C70.6,0.9,63.1,14.2,63,14.4l-3.5,5.9h20.7l4.4-6.6H125.6z"/>
<linearGradient id="SVGID_00000139274286263968542090000006803178085548543918_" gradientUnits="userSpaceOnUse" x1="-524.0359" y1="-141.7939" x2="-524.0359" y2="-148.9039" gradientTransform="matrix(2.59 0 0 -2.59 1453.9574 -368.5611)">
	<stop  offset="0" style="stop-color:#EDEDED"/>
	<stop  offset="0.34" style="stop-color:#EAEAEA"/>
	<stop  offset="0.55" style="stop-color:#E2E2E2"/>
	<stop  offset="0.71" style="stop-color:#D4D4D4"/>
	<stop  offset="0.86" style="stop-color:#C0C0C0"/>
	<stop  offset="0.99" style="stop-color:#A6A6A6"/>
	<stop  offset="0.99" style="stop-color:#A6A6A6"/>
</linearGradient>
<path style="fill:url(#SVGID_00000139274286263968542090000006803178085548543918_);" d="M60.1,20.2h-0.6c-0.1,0,3.3-5.6,3.3-5.6
	s7-13,21.8-13.8h49.4l-0.3,0.5h-49C75.7,2,67.7,7.1,63.4,14.9L60.1,20.2z"/>
<linearGradient id="SVGID_00000038375243775884762030000008440169851173418882_" gradientUnits="userSpaceOnUse" x1="-528.5833" y1="-153.5863" x2="-534.2833" y2="-163.3863" gradientTransform="matrix(2.59 0 0 -2.59 1453.9574 -368.5611)">
	<stop  offset="0" style="stop-color:#EDEDED"/>
	<stop  offset="0.34" style="stop-color:#EAEAEA"/>
	<stop  offset="0.55" style="stop-color:#E2E2E2"/>
	<stop  offset="0.71" style="stop-color:#D4D4D4"/>
	<stop  offset="0.86" style="stop-color:#C0C0C0"/>
	<stop  offset="0.99" style="stop-color:#A6A6A6"/>
	<stop  offset="0.99" style="stop-color:#A6A6A6"/>
</linearGradient>
<polygon style="fill:url(#SVGID_00000038375243775884762030000008440169851173418882_);" points="36.9,57.3 59.1,21 121.4,21
	121.1,21.4 59.5,21.4 37.7,57.2 "/>
<path class="st5" d="M84.6,13.7h41.1l1.4-2.1c-1.3,0.8-2.7,1.3-4.2,1.3c-1.5,0-21.2,0-37.6,0L84.6,13.7z"/>
<path class="st5" d="M71.5,34.6l0.5-0.7h33.2c2.7-0.1,5.4-0.9,7.8-2.2c0,0-3.7,2.9-7.8,2.9H71.5z"/>
<linearGradient id="SVGID_00000114775299858021620090000012277682426985002940_" gradientUnits="userSpaceOnUse" x1="161.115" y1="60.719" x2="175.985" y2="137.829" gradientTransform="matrix(1 0 0 -1 0 121.42)">
	<stop  offset="0" style="stop-color:#1D1D1B"/>
	<stop  offset="1" style="stop-color:#6F6F6E"/>
</linearGradient>
<path style="fill:url(#SVGID_00000114775299858021620090000012277682426985002940_);" d="M192.2,0l-12.4,20.2H150L162.8,0h-20.2
	l-12.8,20.2c0,0-4.7,7.7,1.2,11.9c4.8,3.4,12.1,3.2,12.1,3.2h27.4l-13.9,22.9h3.6c17.4,0,23.9-11.2,23.9-11.2L212.8,0H192.2z"/>
<linearGradient id="SVGID_00000088096745467361338470000003559395579960047509_" gradientUnits="userSpaceOnUse" x1="174.9687" y1="126.1104" x2="153.0787" y2="47.4604" gradientTransform="matrix(1 0 0 -1 0 121.42)">
	<stop  offset="0" style="stop-color:#1D1D1B"/>
	<stop  offset="1" style="stop-color:#6F6F6E"/>
</linearGradient>
<path style="fill:url(#SVGID_00000088096745467361338470000003559395579960047509_);" d="M158,57.5l13.9-22.9H143
	c-0.7,0-7.3-0.1-11.6-3.1c-2.2-1.5-3-3.8-2.5-6.7c0.3-1.4,0.8-2.8,1.5-4.1l12.5-19.8h18.3l-12.7,20.2h31.7l12.4-20.3h18.7l-28,45.9
	c-0.1,0.1-6.5,10.8-23.2,10.8H158L158,57.5z"/>
</svg>
