<?xml version="1.0" encoding="utf-8"?>
<!-- Generator: Adobe Illustrator 26.2.1, SVG Export Plug-In . SVG Version: 6.00 Build 0)  -->
<svg version="1.1" id="Layer_1" xmlns="http://www.w3.org/2000/svg" xmlns:xlink="http://www.w3.org/1999/xlink"
	 x="0px" y="0px"
	 width="120px"
	 height="48px"
	 viewBox="-8 0 400 100" style="enable-background:new 0 0 382 100;" xml:space="preserve"
>
<style type="text/css">
	.st0{fill:none;}
	.st1{fill:#1D1D1B;}
	.st2{fill:#FFFFFF;}
	.st3{fill:#13559D;}
	.st4{fill:#585857;}
	.st5{fill:url(#SVGID_1_);}
	.st6{fill:#E12A24;}
	.st7{fill:#9D9D9C;}
	.st8{fill:#1C2D50;}
	.st9{fill:#D01229;}
</style>
<g>
	<path class="st0" d="M179.9,79c1.8-4.3,8-18.5,13.7-31.5c-0.4,0.9-0.8,1.9-1.2,2.8C187.6,61.2,183,71.5,179.9,79z"/>
	<path class="st0" d="M203.5,24.7c-0.1,0.3-0.2,0.6-0.4,0.8C203.3,25.2,203.4,24.9,203.5,24.7z"/>
	<path class="st0" d="M179.9,79c-6.1,14.6-29.6,16.2-30.5,16.2C150.4,95.2,173.8,93.6,179.9,79z"/>
	<path class="st0" d="M205.7,25.8c0.1-0.2,0.2-0.4,0.2-0.5C205.9,25.4,205.8,25.6,205.7,25.8z"/>
	<path class="st0" d="M182.4,79.5c1.4-3.4,5.7-13.3,10.3-23.7C188.7,64.8,185,73.2,182.4,79.5z"/>
	<path class="st1" d="M179.9,79c3.1-7.5,7.7-17.8,12.5-28.8c0.4-0.9,0.8-1.8,1.2-2.8c4-9.3,7.8-17.9,9.6-22c0.1-0.3,0.2-0.6,0.4-0.8
		c4-9.4,11.1-15.9,21.1-19.3c0.6-0.2,1.2-0.4,1.9-0.6H15.8C10,4.8,5.2,9.5,5.2,15.4l0,69.8c0,2.8,1.1,5.3,3,7.2
		c1.9,1.8,4.4,2.8,7,2.8h134.2C150.3,95.2,173.8,93.6,179.9,79z"/>
	<path class="st2" d="M378.4,5.9c-1.5-2.4-4.2-3.8-7.7-3.8H15.2c-3.4,0-6.6,1.3-9,3.7c-2.4,2.4-3.7,5.6-3.7,9l0,69.8
		c0,3.5,1.4,6.9,4,9.4c2.5,2.4,5.8,3.8,9.3,3.8h314.8c3.4,0,7.2-1.3,10.6-3.7s6.1-5.6,7.5-9l29.7-69.8
		C379.9,11.8,379.9,8.4,378.4,5.9z M15.2,95.2c-2.7,0-5.1-1-7-2.8c-1.9-1.9-3-4.5-3-7.2l0-69.8C5.2,9.5,10,4.8,15.8,4.8h210.7
		c-0.6,0.2-1.2,0.4-1.9,0.6c-10,3.4-17.1,9.9-21.1,19.3c-0.1,0.3-0.2,0.5-0.4,0.8c-1.8,4.1-5.5,12.7-9.6,22
		c-5.7,13-11.9,27.3-13.7,31.5c-6.1,14.6-29.5,16.2-30.5,16.2H15.2z M375.9,14.8l-29.7,69.8c-2.5,5.8-9.2,10.6-15.1,10.6H162.5
		c0.1,0,0.2-0.1,0.2-0.1c9.9-3.2,16.6-8.6,19.6-15.6c2.7-6.3,6.3-14.7,10.3-23.7c5.3-12.1,10.9-25,13.1-30c0.1-0.2,0.2-0.4,0.2-0.5
		c3.7-8.6,9.9-14.2,19.1-17.4c7.8-2.7,16.6-3.1,24.1-3.1h121c2.7,0,4.7,1,5.8,2.8C377.1,9.5,377.1,12.1,375.9,14.8z"/>
	<path class="st2" d="M370.2,4.8h-121c-7.5,0-16.2,0.4-24.1,3.1c-9.2,3.2-15.4,8.8-19.1,17.4c-0.1,0.2-0.1,0.3-0.2,0.5
		c-2.2,5-7.8,17.9-13.1,30c-4.6,10.5-8.9,20.3-10.3,23.7c-2.9,7-9.7,12.4-19.6,15.6c-0.1,0-0.2,0.1-0.2,0.1h168.6
		c5.8,0,12.6-4.7,15.1-10.6l29.7-69.8c1.2-2.8,1.2-5.3,0.1-7.2C374.9,5.8,372.8,4.8,370.2,4.8z"/>
</g>
<g>
	<g>
		<g>
			<g>
				<g>
					<path class="st2" d="M179.1,21.6c-0.8-1.1-2.1-1.7-3.5-1.7h-36.7c-1.3,0-2.6,0.6-3.4,1.6l-7.1,8.6c0-2.1-0.7-4.1-2.1-5.7
						c-2.8-3.4-8.2-5.1-16.1-5.1c-4.3,0-8.9,0.7-12.7,2.3c0,0,0,0,0,0c-0.8-1.1-2.1-1.7-3.5-1.7H34.5c-2,0-3.8,1.4-4.3,3.4L24.4,47
						c-0.2,0.8-0.2,1.7,0.1,2.5c-0.4,0.5-0.8,1.1-0.9,1.8L23,53.7c-0.3,1.3,0,2.7,0.8,3.8c0.8,1.1,2.1,1.7,3.5,1.7h29.5
						c-0.4,0.7-0.7,1.5-0.9,2.4l0,0l-0.4,1.7c-0.6,2.3-0.2,4.2,0.9,5.7c1.8,2.3,4.4,2.3,5.8,2.3h0c0.6,0,1.4,0,2.3-0.2
						c0.4,0.1,0.8,0.2,1.2,0.2h1.7c0.4,0,0.7-0.1,1.1-0.2c0.4,0.1,0.8,0.2,1.2,0.2h0.9l-0.9,3.6c-0.3,1.3,0,2.7,0.8,3.8
						c0.8,1.1,2.1,1.7,3.5,1.7h3.5c0.6,0,1.2-0.1,1.9-0.2c0.4,0.1,0.9,0.2,1.4,0.2h4.8c0.8,0,1.5-0.2,2.1-0.5
						c0.6,0.3,1.3,0.5,2.1,0.5h1.7c0.6,0,1.3-0.1,1.8-0.4c0.6,0.3,1.2,0.4,1.8,0.4h1.7c0.3,0,0.6-0.1,0.9-0.2
						c0.4,0.1,0.7,0.2,1.1,0.2h1.7c0,0,0.1,0,0.1,0c0.1,0,0.1,0,0.2,0h1.8c0.5,0,1-0.1,1.5-0.3c0.5,0.2,1,0.3,1.5,0.3h1.8
						c0.1,0,0.1,0,0.2,0c0.1,0,0.1,0,0.2,0h1.7c0.3,0,0.6-0.1,0.9-0.2c0.3,0.1,0.6,0.2,0.9,0.2h3c0.4,0,0.9-0.1,1.3-0.2
						c1,0.2,2,0.2,2.6,0.2c0.6,0,1.4,0,2.3-0.2c0.4,0.1,0.8,0.2,1.2,0.2h4.8c1.6,0,3.1-0.9,3.9-2.3c1.8,1.4,4.5,2.7,8.6,2.7
						c2.3,0,5.3-0.3,7.6-0.9c0.7-0.2,1.3-0.5,1.9-0.9c0.8,1,2.1,1.5,3.3,1.5h5.8c2,0,3.8-1.4,4.3-3.4c0,0,1.2-5.1,2.1-8.6
						c0.7,0,1.7,0,1.7,0c2,0,3.8-1.4,4.3-3.4l1-4c0.1-0.3,0.1-0.7,0.1-1.1c0-0.6-0.1-1.2-0.3-1.7c0.8-0.6,1.4-1.5,1.7-2.5l0.6-2.4
						c0.3-1.3,0-2.7-0.8-3.8c-0.3-0.4-0.7-0.8-1.2-1c2.9-2.5,4.4-5.8,4.9-8l3.7-15.2c0.1-0.3,0.1-0.7,0.1-1.1
						C180.1,23.3,179.8,22.4,179.1,21.6z"/>
					<path class="st3" d="M139.2,81.6c-3.4,0-6.2-0.8-8.4-2.3c-1,1.2-2.5,1.9-4.1,1.9h-4.8c-0.4,0-0.8,0-1.2-0.1
						c-1,0.2-1.8,0.2-2.3,0.2c-0.6,0-1.6,0-2.6-0.2c-0.4,0.1-0.9,0.2-1.3,0.2h-3c-0.3,0-0.6-0.1-0.8-0.1c0,0,0,0,0,0
						c-0.3,0.1-0.6,0.1-0.9,0.1H108c-0.1,0-0.1,0-0.2,0l0,0l0,0c-0.1,0-0.1,0-0.2,0h-1.8c-0.5,0-1-0.1-1.5-0.2
						c-0.5,0.2-1,0.2-1.5,0.2H101c-0.1,0-0.1,0-0.2,0c-0.1,0-0.1,0-0.1,0H99c-0.4,0-0.7,0-1.1-0.1c-0.3,0.1-0.6,0.1-0.9,0.1h-1.7
						c-0.6,0-1.2-0.1-1.8-0.3c-0.6,0.2-1.2,0.3-1.8,0.3h-1.7c-0.7,0-1.4-0.1-2.1-0.4c-0.7,0.3-1.4,0.4-2.1,0.4h-4.8
						c-0.5,0-0.9-0.1-1.4-0.2c-0.6,0.1-1.3,0.2-1.9,0.2H74c-1.7,0-3.2-0.8-4.2-2.1c-1-1.3-1.4-3-1-4.6l0.6-2.5
						c-0.3,0-0.6-0.1-0.9-0.1c-0.3,0.1-0.7,0.2-1.1,0.2h-1.7c-0.4,0-0.8,0-1.2-0.1c-0.8,0.2-1.6,0.2-2.3,0.2c-1.5,0-4.6,0-6.6-2.6
						c-1.4-1.7-1.7-3.9-1.1-6.5l0.4-1.7c0.1-0.4,0.2-0.8,0.4-1.2h-28c-1.7,0-3.2-0.8-4.2-2.1c-1-1.3-1.4-3-1-4.6l0.6-2.4
						c0.2-0.6,0.4-1.2,0.8-1.8c-0.2-0.8-0.2-1.7,0-2.5L29.3,23c0.6-2.4,2.7-4.1,5.2-4.1H94c1.4,0,2.8,0.6,3.8,1.5
						c3.5-1.4,7.9-2.1,12.4-2.1c8.2,0,13.8,1.8,16.8,5.5c1,1.2,1.7,2.5,2,4l5.7-6.9c1-1.3,2.5-2,4.2-2h36.7c1.7,0,3.2,0.8,4.2,2.1
						c0.7,0.9,1.2,2.1,1.2,3.3c0,0.4-0.1,0.9-0.2,1.3c-3,12.3-3.6,14.7-3.7,15.2l0,0c-0.2,1.1-1.2,4.5-4.4,7.7
						c0.2,0.2,0.3,0.3,0.5,0.5c1,1.3,1.4,3,1,4.6l-0.6,2.4c-0.2,1-0.8,1.9-1.5,2.6c0.1,0.5,0.2,0.9,0.2,1.4c0,0.4-0.1,0.9-0.2,1.3
						l-1,4c-0.6,2.4-2.7,4.1-5.2,4.1H165l-1.9,7.9c-0.6,2.4-2.7,4.1-5.2,4.1h-5.8c-1.3,0-2.5-0.4-3.4-1.2c-0.5,0.3-1,0.5-1.6,0.6
						C144.6,81.3,141.5,81.6,139.2,81.6z M130.3,76.5l0.9,0.7c2,1.6,4.7,2.5,8,2.5c2.2,0,5.1-0.3,7.4-0.8c0.5-0.1,1-0.4,1.5-0.7
						l0.7-0.6l0.6,0.7c0.7,0.8,1.6,1.2,2.6,1.2h5.8c1.6,0,3-1.1,3.4-2.7l2.3-9.3h2.4c1.6,0,3-1.1,3.4-2.7l1-4
						c0.1-0.3,0.1-0.6,0.1-0.8c0-0.4-0.1-0.9-0.3-1.3l-0.3-0.7l0.6-0.4c0.7-0.5,1.1-1.2,1.3-2l0.6-2.4c0.3-1,0-2.1-0.6-3
						c-0.3-0.3-0.6-0.6-0.9-0.8l-1.1-0.7l1-0.9c2.7-2.4,4.1-5.4,4.6-7.5l0-0.1c0.3-1.1,3.7-15.2,3.7-15.2c0.1-0.3,0.1-0.6,0.1-0.8
						c0-0.8-0.3-1.5-0.7-2.2c-0.7-0.9-1.7-1.3-2.7-1.3h-36.7c-1,0-2,0.5-2.7,1.3l-8.8,10.6l0-2.6c0-1.9-0.7-3.7-1.9-5.1
						c-2.6-3.2-7.8-4.8-15.4-4.8c-4.6,0-8.9,0.8-12.3,2.2l-0.7,0.3l-0.5-0.6C96,21.3,95,20.8,94,20.8H34.5c-1.6,0-3,1.1-3.4,2.7
						l-5.8,23.7c-0.2,0.7-0.1,1.3,0.1,2l0.2,0.5l-0.3,0.4c-0.4,0.4-0.6,0.9-0.7,1.4l-0.6,2.4c-0.3,1,0,2.1,0.6,3
						c0.7,0.9,1.7,1.3,2.7,1.3h31.1l-0.8,1.4c-0.4,0.6-0.6,1.3-0.8,2.1l-0.4,1.7c-0.5,2-0.2,3.6,0.8,4.9c1.5,1.9,3.7,1.9,5.1,1.9
						c0.5,0,1.3,0,2.1-0.2l0.2-0.1l0.2,0.1c0.3,0.1,0.6,0.1,0.9,0.1h1.7c0.2,0,0.5-0.1,0.8-0.1l0.3-0.1l0.2,0.1
						c0.4,0.1,0.7,0.1,0.9,0.1h2.1L70.6,75c-0.3,1,0,2.1,0.6,3c0.7,0.8,1.7,1.3,2.7,1.3h3.5c0.6,0,1.2-0.1,1.7-0.2l0.3-0.1l0.2,0.1
						c0.4,0.1,0.7,0.2,1.1,0.2h4.8c0.6,0,1.1-0.1,1.6-0.4l0.4-0.2l0.4,0.2c0.5,0.3,1.1,0.4,1.6,0.4h1.7c0.5,0,1-0.1,1.4-0.3l0.4-0.2
						l0.4,0.2c0.5,0.2,0.9,0.3,1.4,0.3h1.7c0.1,0,0.3,0,0.5-0.1l0.4-0.1l0.2,0.1c0.3,0.1,0.6,0.1,0.9,0.1h1.7c0.1,0,0.1,0,0.2,0l0,0
						l0,0c0,0,0.1,0,0.1,0l1.8,0c0.4,0,0.7-0.1,1.2-0.2l0.3-0.1l0.3,0.1c0.4,0.2,0.8,0.2,1.2,0.2h1.8c0,0,0,0,0.1,0l0.2,0l0.2,0h1.7
						c0.1,0,0.3,0,0.5-0.1c0.1,0,0.2,0,0.2-0.1l0.2,0l0.2,0c0.1,0,0.2,0,0.3,0.1c0.2,0,0.3,0.1,0.4,0.1h3c0.3,0,0.6-0.1,1-0.2
						l0.2-0.1l0.2,0.1c0.9,0.2,1.8,0.2,2.4,0.2c0.5,0,1.3,0,2.1-0.2l0.2-0.1l0.2,0.1c0.3,0.1,0.6,0.1,0.9,0.1h4.8
						c1.3,0,2.4-0.7,3-1.8L130.3,76.5z"/>
				</g>
			</g>
		</g>
	</g>
	<g>
		<g>
			<path class="st4" d="M65.8,64.2l0,0.2c-0.2,0.7-0.3,1.4-1,1.9c-0.7,0.5-1.4,0.5-2.2,0.5c-1.8,0-3-0.1-2.5-2.5l0.4-1.7
				c0.5-2.2,1.8-2.5,3.7-2.5c1.8,0,2.6,0.2,2.1,2.1l-0.1,0.3h-1.8l0.1-0.3c0.1-0.6-0.3-0.6-0.9-0.6c-1,0-1.2,0.3-1.4,1.2l-0.2,1
				c-0.2,1-0.3,1.3,0.8,1.3c0.7,0,1.1-0.1,1.3-0.8l0-0.2H65.8z"/>
			<path class="st4" d="M71.8,66.7H70l0.6-2.6h-2.3l-0.6,2.6H66l1.6-6.5h1.7l-0.6,2.4H71l0.6-2.4h1.7L71.8,66.7z"/>
			<path class="st4" d="M74.6,65.6L74,66.7h-1.8l3.5-6.5h2.6l0.4,6.5H77l-0.1-1.1H74.6z M76.8,61.5L76.8,61.5l-1.5,2.8h1.6
				L76.8,61.5z"/>
			<path class="st4" d="M80.9,66.7h-1.7l1.6-6.5h2.8l0.2,4.1h0.1l2.2-4.1h2.8l-1.6,6.5h-1.7l1.4-5h-0.1l-2.9,5h-1.5l-0.5-5H82
				L80.9,66.7z"/>
			<path class="st4" d="M88.3,66.7l1.6-6.5h3.3c1.6,0,2.1,0.7,1.6,2.4c-0.4,1.8-1,2.5-2.8,2.5h-1.5L90,66.7H88.3z M92,63.5
				c0.7,0,0.8-0.1,1-0.9c0.2-0.7,0.1-0.9-0.6-0.9h-1.2l-0.4,1.8H92z"/>
			<path class="st4" d="M96.2,66.7h-1.7l1.6-6.5h1.7L96.2,66.7z"/>
			<path class="st4" d="M97.6,64.3l0.4-1.8c0.5-2,1.8-2.4,3.6-2.4c1.8,0,2.9,0.4,2.4,2.4l-0.4,1.8c-0.5,2-1.8,2.4-3.6,2.4
				C98.3,66.7,97.1,66.3,97.6,64.3z M101.9,64.1l0.4-1.5c0.2-1-0.1-1.1-1-1.1c-0.9,0-1.2,0.1-1.5,1.1l-0.4,1.5c-0.2,1,0.1,1.1,1,1.1
				C101.3,65.2,101.7,65.1,101.9,64.1z"/>
			<path class="st4" d="M105.6,66.7h-1.7l1.6-6.5h2.9l0.6,5h0.1l1.1-5h1.7l-1.6,6.5h-3l-0.6-5h-0.1L105.6,66.7z"/>
			<path class="st4" d="M113.2,66.7h-1.7l1.6-6.5h2.9l0.6,5h0.1l1.1-5h1.7l-1.6,6.5h-3l-0.6-5h-0.1L113.2,66.7z"/>
			<path class="st4" d="M120.8,65.6l-0.6,1.1h-1.8l3.5-6.5h2.6l0.4,6.5h-1.8l-0.1-1.1H120.8z M123,61.5L123,61.5l-1.5,2.8h1.6
				L123,61.5z"/>
			<path class="st4" d="M128,66.7h-1.7l1.2-5h-1.7l0.4-1.5h5.2l-0.4,1.5h-1.8L128,66.7z"/>
			<path class="st4" d="M75.9,69.3h3.3c1.8,0,2.5,0.7,2,2.5l-0.3,1.4c-0.4,1.8-1.2,2.6-3,2.6h-3.5L75.9,69.3z M76.4,74.3H78
				c0.6,0,1-0.4,1.1-1.1l0.3-1.4c0.2-0.8,0-1-0.6-1h-1.5L76.4,74.3z"/>
			<path class="st4" d="M83.8,71.9h2.8l-0.3,1.2h-2.8l-0.3,1.3h3l-0.3,1.4h-4.8l1.6-6.5h4.7l-0.3,1.4h-3L83.8,71.9z"/>
			<path class="st4" d="M92.8,72h2.7l-0.3,1.4h-2.7l-0.6,2.4h-1.7l1.6-6.5h4.6L96,70.7h-2.9L92.8,72z"/>
			<path class="st4" d="M97.1,69.3h3.4c1.5,0,2.2,0.3,1.8,2c-0.3,1.1-0.4,1.7-1.7,2l0,0.1c0.7,0,1.1,0.4,0.9,1.2l-0.3,1.3h-1.7
				l0.2-0.9c0.1-0.5,0-0.8-0.5-0.8h-1.3l-0.4,1.7h-1.7L97.1,69.3z M99.3,72.6c0.7,0,0.8-0.3,1-1c0.1-0.6,0-0.7-0.5-0.7h-1.3L98,72.6
				H99.3z"/>
			<path class="st4" d="M103.7,74.7l-0.6,1.1h-1.8l3.5-6.5h2.6l0.4,6.5h-1.8l-0.1-1.1H103.7z M105.9,70.6L105.9,70.6l-1.5,2.8h1.6
				L105.9,70.6z"/>
			<path class="st4" d="M110.1,75.8h-1.7l1.6-6.5h2.9l0.7,5h0.1l1.1-5h1.7l-1.6,6.5h-3l-0.6-5h-0.1L110.1,75.8z"/>
			<path class="st4" d="M122,73.3l0,0.2c-0.2,0.7-0.3,1.4-1,1.8c-0.7,0.5-1.4,0.5-2.2,0.5c-1.8,0-3-0.1-2.5-2.5l0.4-1.7
				c0.5-2.2,1.8-2.5,3.7-2.5c1.8,0,2.6,0.2,2.1,2.1l-0.1,0.3h-1.8l0.1-0.3c0.1-0.6-0.3-0.6-0.9-0.6c-1,0-1.2,0.3-1.4,1.2l-0.2,1
				c-0.2,1-0.3,1.3,0.8,1.3c0.7,0,1.1-0.1,1.3-0.8l0-0.2H122z"/>
			<path class="st4" d="M124.9,71.9h2.8l-0.3,1.2h-2.8l-0.3,1.3h3l-0.3,1.4h-4.8l1.6-6.5h4.7l-0.3,1.4h-3L124.9,71.9z"/>
		</g>
		<linearGradient id="SVGID_1_" gradientUnits="userSpaceOnUse" x1="27.5835" y1="53.5236" x2="169.3112" y2="53.5236">
			<stop  offset="0" style="stop-color:#FFFFFF"/>
			<stop  offset="1" style="stop-color:#13559D"/>
		</linearGradient>
		<polygon class="st5" points="27.6,54.7 28.2,52.3 28.2,52.3 169.3,52.3 168.7,54.7 		"/>
		<g>
			<polygon class="st2" points="161.7,24.3 166.5,24.3 160.7,48 157.9,39.5 			"/>
			<path class="st6" d="M160.7,48l5.8-23.7h9.5l-3.7,15.3C172.2,39.6,170.3,48,160.7,48z"/>
			<polygon class="st3" points="153,24.3 161.7,24.3 157.9,39.5 153,24.3 			"/>
			<g>
				<polygon class="st1" points="34.8,24.3 63.6,24.3 62.1,30.4 44.8,30.4 44,33.3 58.9,33.3 57.5,39 42.7,39 40.4,48 29,48
					34.8,24.3 				"/>
				<polygon class="st1" points="65.5,24.3 94.3,24.3 92.8,30.4 75.5,30.4 74.8,33.3 89.6,33.3 88.2,39 73.4,39 71.2,48 59.7,48
					65.5,24.3 				"/>
				<path class="st1" d="M101.5,40c-0.1,0.6-0.1,1.1,0,1.6c0.5,1.4,2.9,1.7,5,1.7c1.9,0,4.8-0.4,5.3-2.2c0.3-1.2-1.2-1.6-7.3-2.7
					c-5.6-1.1-12.1-2.1-10.9-6.9c1.3-5.5,9.3-7.8,16.9-7.8c8.1,0,14.7,2,13.6,7.7h-10.8c0.4-0.9-0.1-1.5-0.9-1.9
					c-0.8-0.4-2.1-0.6-3.2-0.6c-1.6,0-4.2,0.3-4.5,1.6c-0.2,1.7,5,2.1,10,3c5,0.9,9.9,2.5,8.8,6.9c-1.5,6.2-10.9,8.2-19.2,8.2
					c-4.2,0-16-1-14.3-8.6H101.5L101.5,40z"/>
				<path class="st1" d="M139.2,24.3h11.2l7.7,23.7h-11.9l-0.7-3.4h-11.8l-2.5,3.4h-11.5L139.2,24.3L139.2,24.3z M144.5,39.5
					l-1.5-7.3h-0.1l-5.4,7.3H144.5L144.5,39.5z"/>
			</g>
		</g>
		<g>
			<path class="st3" d="M146.2,75.4c-2.1,0.4-4.7,0.8-6.7,0.8c-7.1,0-8.5-4.5-7.7-8c1.2-5,6.1-8.4,12.1-8.4c2,0,3.9,0.4,5.5,1.1
				l-1,4c-1.5-0.9-3-1.4-4.6-1.4c-3,0-5.5,1.8-6.2,4.5c-0.7,2.9,1.2,4.6,4.9,4.1l0.5-1.9H141l0.8-3.4h6.5L146.2,75.4z"/>
			<path class="st3" d="M150.1,64l1-4h16.2l-1,4h-5.2l-2.9,12h-5.8l2.9-12H150.1z"/>
		</g>
	</g>
</g>
<g>
	<polygon class="st7" points="209.3,61.2 203.2,75.6 332,75.6 338.1,61.2 	"/>
	<g>
		<path class="st2" d="M233.7,64.2h8.8v1.9h-6.3v1.7h6v1.9h-6v2.9h-2.5V64.2z"/>
		<path class="st2" d="M244.7,64.2h7.2c1.5,0,2.1,0.1,2.6,0.5c0.5,0.4,0.7,1.1,0.7,2.2c0,1.5-0.4,2.2-1.4,2.4c1,0.2,1.3,0.6,1.3,1.9
			v1.3h-2.6v-1c0-0.9-0.3-1.1-1.4-1.1h-3.9v2.1h-2.5V64.2z M251.2,68.4c1.2,0,1.5-0.1,1.5-1c0-0.5,0-0.8-0.2-0.9
			c-0.2-0.2-0.4-0.2-1.2-0.2h-4v2.1H251.2z"/>
		<path class="st2" d="M261.7,64.2h3.4l4.6,8.3h-2.8l-0.8-1.5h-5.4l-0.8,1.5H257L261.7,64.2z M265.2,69.3l-1.8-3.3l-1.8,3.3H265.2z"
			/>
		<path class="st2" d="M271.6,64.2h4l5,6.3l-0.1-6.3h2.4v8.3h-4.1l-5-6.3l0.1,6.3h-2.4V64.2z"/>
		<path class="st2" d="M296,69.4c0,1.2-0.1,1.6-0.2,2c-0.3,0.7-1,1-2.3,1.1c-0.5,0-1.5,0.1-3.2,0.1c-2.4,0-3.2-0.1-3.8-0.5
			c-0.8-0.5-1.1-1.4-1.1-3.9c0-2.2,0.2-3,1.1-3.5c0.7-0.4,1.5-0.5,3.9-0.5c3.1,0,3.8,0.1,4.5,0.4c0.7,0.3,1,1.1,1,2.3v0.3h-2.4
			c-0.1-0.9-0.2-1-2.4-1c-2.1,0-2.4,0-2.8,0.3c-0.3,0.3-0.4,0.6-0.4,2c0,2,0.2,2.1,2.6,2.1c1.9,0,2.2,0,2.5-0.2
			c0.4-0.1,0.5-0.4,0.5-1H296z"/>
		<path class="st2" d="M307.5,64.2v1.9h-6.7v1.4h6.3v1.6h-6.3v1.5h6.8v1.9h-9.3v-8.3H307.5z"/>
	</g>
	<g id="GT4_00000037682618666110663580000018392472400932922762_">
		<path class="st8" d="M237.9,33.7L231,50h46.4l4.5-10.6h-15.6c-0.8,0-1.5,0.5-1.8,1.2l-2,4.7h-12.6c0,0,4-9.4,4-9.4
			c0.4-0.7,1.2-1.2,2-1.2h33.8L283.2,50h16.9l-2.4,5.6h-86.1l10.9-25.7c1.4-3.4,4.7-5.5,8.4-5.5h105.9l-2.4,5.6h-90.9
			C241.1,30,238.9,31.4,237.9,33.7z"/>
		<g>
			<polygon class="st9" points="344.8,45.3 350.7,45.3 348.7,50 342.8,50 340.5,55.6 323.6,55.6 326,50 300.1,50 306.6,34.7
				323.5,34.7 319,45.3 328,45.3 334.5,30 351.3,30 			"/>
		</g>
	</g>
</g>
</svg>
