<svg height="48px" viewBox="0 0 25.319875 14.796007" width="120px" xmlns="http://www.w3.org/2000/svg" xmlns:xlink="http://www.w3.org/1999/xlink">
    <linearGradient id="a">
        <stop offset="0" stop-color="#fff" />
        <stop offset="1" stop-color="#848788" />
    </linearGradient>
    <linearGradient id="b" gradientTransform="matrix(0 -5.4946954 5.4946954 0 -174.32626 -35.674046)" gradientUnits="userSpaceOnUse" spreadMethod="pad" x1="0" x2="1" xlink:href="#a" y1="0" y2="0" />
    <linearGradient id="c" gradientTransform="matrix(0 2.8110461 -2.8110461 0 -172.38295 -43.826927)" gradientUnits="userSpaceOnUse" spreadMethod="pad" x1="0" x2="1" xlink:href="#a" y1="0" y2="0" />
    <linearGradient id="p">
        <stop offset="0" stop-color="#848788" />
        <stop offset=".5" stop-color="#fff" />
        <stop offset="1" stop-color="#848788" />
    </linearGradient>
    <linearGradient id="r" gradientTransform="matrix(0 5.1103956 -5.1103956 0 -172.34901 -44.848147)" gradientUnits="userSpaceOnUse" spreadMethod="pad" x1="0" x2="1" xlink:href="#p" y1="0" y2="0" />
    <linearGradient id="s" gradientTransform="matrix(0 10.129603 -10.129603 0 -174.32596 -45.633053)" gradientUnits="userSpaceOnUse" spreadMethod="pad" x1="0" x2="1" xlink:href="#p" y1="0" y2="0" />
    <linearGradient id="t" gradientUnits="userSpaceOnUse" spreadMethod="pad" x1="-183.06727" x2="-171.556353" xlink:href="#a" y1="-40.294775" y2="-40.294775" />
    <g transform="translate(267 68)">
        <g transform="scale(1.5)">
            <path
                    d="m-173.59895-43.636966c-1.81575.02575-2.67653 1.605139-2.67653 1.605139l-1.8997 3.161947-1.19557 1.917347c1.14865 0 1.90394-.213077 2.43664-.497063.65828-.350309 1.01494-.978253 1.01494-.978253l.75106-1.137708h3.81459c1.09643.0078 2.06763-1.743428 2.06763-1.743428h-4.82388l.44203-.66922h4.73569l1.07244-1.658761z"
                    fill="url(#t)"
            />
            <path
                    d="m-174.2978-41.207738h-2.35444l-1.43687 2.391833-1.09819 1.760009c.90805-.01835 1.63124-.176742 2.20592-.482953.62265-.331611.97049-.933097.97402-.939095l.002-.0032.78317-1.185686h3.87597c.83749 0 1.62171-1.126772 1.88136-1.540933z"
                    fill="url(#s)"
            />
            <path
                    d="m-173.59754-43.535718c-1.7332.02434-2.58022 1.537405-2.5908 1.556455l-.4639.771525h2.35444l.57573-.871714h4.73534l.94085-1.456266z"
                    fill="url(#r)"
            />
            <path
                    d="m-159.54866-43.640705h-.15275l-6.40398.000353c-.97931-.0071-1.85843 1.389239-2.03482 1.686983l5.85011.000706-.39793.644172h-5.81801l-1.07456 1.737783h5.81801l-.47378.766233h-5.81766l-1.14512 1.851731c1.14477.01023 7.10213-.0039 7.10213-.0039 1.1818 0 1.81504-1.012472 1.81504-1.012472l1.21567-1.991783c.19826-.317147-.09-.457906-.26529-.511881.007-.01023.0134-.02046.0201-.03104.56762-.02293.65687-.183092.65687-.183092l1.48908-2.345972c.3429-.590903-.38312-.607836-.38312-.607836"
                    fill="#d02402"
            />
            <path
                    d="m-173.59578-43.434471c-1.66511.02364-2.4959 1.489075-2.50578 1.506714l-.4325.720019h2.11455l.64276-.972961h4.73463l.81033-1.253772z"
                    fill="url(#c)"
            />
            <path
                    d="m-174.48619-41.106491h-2.1089l-1.40829 2.344209-.9973 1.599141c.80433-.03492 1.45027-.18803 1.97167-.465314.59232-.315383.93063-.894291.93522-.902405l.002-.0032.81492-1.234017h3.93065c.70238 0 1.39065-.887942 1.69474-1.338439z"
                    fill="url(#b)"
            />
        </g>
    </g>
</svg>
