<?xml version="1.0" encoding="utf-8"?>
<!-- Generator: Adobe Illustrator 24.0.2, SVG Export Plug-In . SVG Version: 6.00 Build 0)  -->
<svg version="1.1" id="Layer_1" xmlns="http://www.w3.org/2000/svg" xmlns:xlink="http://www.w3.org/1999/xlink" x="0px" y="0px"
	 width="120px" height="48px" viewBox="0 0 167 100" style="enable-background:new 0 0 167 100;" xml:space="preserve">
<style type="text/css">
	.st0{fill:#FFFFFF;}
	.st1{fill:url(#SVGID_1_);}
	.st2{fill:#EE2E24;}
	.st3{fill:url(#SVGID_2_);}
	.st4{fill-rule:evenodd;clip-rule:evenodd;fill:#F49C0E;}
	.st5{fill-rule:evenodd;clip-rule:evenodd;fill:#FFFFFF;}
</style>
	<g transform="scale(1.4)">
		<g transform="translate(-5.5 4)">
<g>
	<g>
		<g>
			<g id="World_Challenge">
				<path class="st0" d="M19,55.9c0.1,0,0.2,0,0.1,0.1l-2.3,6c-0.4,1-0.6,1.1-1.7,1.1c-1.3,0-1.4-0.1-1.5-1.1l-0.3-3.5L11.7,62
					c-0.4,1-0.6,1.1-1.9,1.1c-1.1,0-1.3-0.1-1.3-1.1l-0.2-6c0-0.1,0.1-0.1,0.2-0.1h1.4c0.1,0,0.1,0,0.1,0.1l0.2,5.3
					c0,0.2,0.1,0.3,0.2,0.3c0.2,0,0.2,0,0.3-0.3l2.3-5.1c0.1-0.1,0.1-0.1,0.2-0.1h1.2c0.1,0,0.2,0,0.2,0.1l0.5,5.1
					c0,0.2,0.1,0.3,0.2,0.3c0.1,0,0.2,0,0.3-0.3l2.1-5.3c0-0.1,0.1-0.1,0.2-0.1H19z"/>
				<path class="st0" d="M26.2,59.5c-0.5,2.8-1.4,3.6-4,3.6c-2.6,0-3.2-0.8-2.7-3.6c0.5-2.8,1.4-3.7,4-3.7
					C26.1,55.8,26.7,56.7,26.2,59.5z M21.1,59.5c-0.3,1.8-0.1,2.4,1.3,2.4c1.4,0,1.8-0.6,2.1-2.4c0.3-1.8,0.1-2.4-1.3-2.4
					C21.8,57.1,21.4,57.7,21.1,59.5z"/>
				<path class="st0" d="M33.9,58.2c-0.2,1.4-0.8,2-2,2.2l1.3,2.5c0.1,0.1,0,0.2-0.2,0.2h-1.3c-0.2,0-0.3-0.1-0.4-0.2l-1.3-2.4h-1
					l-0.4,2.5c0,0.1-0.1,0.1-0.2,0.1h-1.3c-0.1,0-0.2,0-0.1-0.1l1.2-6.9c0-0.1,0.1-0.1,0.2-0.1c0.9-0.1,1.9-0.1,2.8-0.1
					C33.5,55.8,34.2,56.4,33.9,58.2z M29.8,57.1l-0.4,2.2h1.1c1.2,0,1.6-0.1,1.8-1.1c0.2-0.9-0.1-1.2-1.4-1.2H29.8z"/>
				<path class="st0" d="M37.3,55.9c0.1,0,0.1,0,0.1,0.1l-1,5.8h3.4c0.1,0,0.1,0,0.1,0.1l-0.2,1c0,0.1-0.1,0.1-0.2,0.1h-4.9
					c-0.1,0-0.1,0-0.1-0.1l1.2-6.9c0-0.1,0.1-0.1,0.2-0.1H37.3z"/>
				<path class="st0" d="M47.7,59.5c-0.5,2.6-1.6,3.6-4,3.6c-1,0-2.1,0-3-0.1c-0.1,0-0.1,0-0.1-0.1l1.2-6.8c0-0.1,0.1-0.1,0.2-0.1
					c0.9-0.1,2-0.1,3-0.1C47.4,55.8,48.1,56.9,47.7,59.5z M43.2,57.1l-0.8,4.7h1.5c1.3,0,1.8-0.7,2.1-2.4c0.3-1.8-0.1-2.4-1.4-2.4
					H43.2z"/>
				<path class="st0" d="M57.5,56c0.2,0,0.2,0.1,0.2,0.3L57.6,57c0,0.1-0.1,0.1-0.2,0.1h-2.1c-1.4,0-1.8,0.6-2.1,2.4
					c-0.3,1.8-0.2,2.4,1.2,2.4h2.1c0.1,0,0.1,0,0.1,0.1l-0.1,0.8c0,0.1-0.1,0.2-0.3,0.2c-0.5,0.1-1.2,0.1-2.1,0.1
					c-2.6,0-3.2-0.8-2.7-3.7c0.5-2.8,1.3-3.6,4-3.6C56.4,55.8,57,55.9,57.5,56z"/>
				<path class="st0" d="M65.2,55.9c0.1,0,0.1,0,0.1,0.1l-1.2,6.9c0,0.1-0.1,0.1-0.2,0.1h-1.3c-0.1,0-0.1,0-0.1-0.1l0.5-2.8h-3.4
					L59,62.9c0,0.1-0.1,0.1-0.2,0.1h-1.3c-0.1,0-0.1,0-0.1-0.1l1.2-6.9c0-0.1,0.1-0.1,0.2-0.1h1.3c0.1,0,0.1,0,0.1,0.1l-0.5,2.8h3.4
					l0.5-2.8c0-0.1,0.1-0.1,0.2-0.1H65.2z"/>
				<path class="st0" d="M71.5,57l0.8,6c0,0.1-0.1,0.1-0.2,0.1h-1.3c-0.1,0-0.1,0-0.1-0.1L70.4,61h-2.8l-0.9,1.9
					c-0.1,0.1-0.1,0.1-0.2,0.1h-1.3c-0.1,0-0.1,0-0.1-0.1l2.9-6c0.5-1,0.7-1.1,1.9-1.1C71.2,55.8,71.4,55.9,71.5,57z M69.4,57.3
					l-1.2,2.5h2L70,57.3c0-0.2,0-0.3-0.2-0.3C69.6,57.1,69.5,57.1,69.4,57.3z"/>
				<path class="st0" d="M76,55.9c0.1,0,0.1,0,0.1,0.1l-1,5.8h3.4c0.1,0,0.1,0,0.1,0.1l-0.2,1c0,0.1-0.1,0.1-0.2,0.1h-4.9
					c-0.1,0-0.1,0-0.1-0.1l1.2-6.9c0-0.1,0.1-0.1,0.2-0.1H76z"/>
				<path class="st0" d="M82,55.9c0.1,0,0.1,0,0.1,0.1l-1,5.8h3.4c0.1,0,0.1,0,0.1,0.1l-0.2,1c0,0.1-0.1,0.1-0.2,0.1h-4.9
					c-0.1,0-0.1,0-0.1-0.1l1.2-6.9c0-0.1,0.1-0.1,0.2-0.1H82z"/>
				<path class="st0" d="M91.8,55.9c0.1,0,0.2,0,0.1,0.1l-0.2,1c0,0.1-0.1,0.1-0.2,0.1h-3.7l-0.3,1.8H91c0.1,0,0.2,0,0.1,0.1L91,60
					c0,0.1-0.1,0.1-0.2,0.1h-3.4l-0.3,1.7h3.7c0.1,0,0.1,0,0.1,0.1l-0.2,1c0,0.1-0.1,0.1-0.2,0.1h-5.2c-0.1,0-0.1,0-0.1-0.1l1.2-6.9
					c0-0.1,0.1-0.1,0.2-0.1H91.8z"/>
				<path class="st0" d="M99.9,55.9c0.1,0,0.1,0,0.1,0.1l-1.2,6.9c0,0.1-0.1,0.1-0.2,0.1h-1c-0.2,0-0.4-0.1-0.5-0.2l-2.6-4.5
					l-0.8,4.6c0,0.1-0.1,0.1-0.2,0.1h-1.3c-0.1,0-0.1,0-0.1-0.1l1.2-6.9c0-0.1,0.1-0.1,0.2-0.1h1c0.4,0,0.5,0.1,0.6,0.3l2.5,4.2
					l0.8-4.4c0-0.1,0.1-0.1,0.2-0.1H99.9z"/>
				<path class="st0" d="M107.1,56c0.1,0,0.2,0.1,0.2,0.3l-0.1,0.7c0,0.1-0.1,0.1-0.2,0.1h-2.3c-1.4,0-1.8,0.5-2.1,2.4
					c-0.3,1.8-0.2,2.4,1.3,2.4h1.3l0.4-2.2c0-0.1,0.1-0.1,0.2-0.1h1.2c0.1,0,0.1,0.1,0.1,0.1l-0.5,2.6c0,0.1,0,0.2-0.1,0.2
					c-0.3,0.4-1.6,0.6-2.9,0.6c-2.6,0-3.2-0.8-2.7-3.6c0.5-2.8,1.3-3.7,4-3.7C105.6,55.8,106.6,55.9,107.1,56z"/>
				<path class="st0" d="M114.5,55.9c0.1,0,0.2,0,0.1,0.1l-0.2,1c0,0.1-0.1,0.1-0.2,0.1h-3.7l-0.3,1.8h3.4c0.1,0,0.2,0,0.1,0.1
					l-0.2,0.9c0,0.1-0.1,0.1-0.2,0.1h-3.4l-0.3,1.7h3.7c0.1,0,0.1,0,0.1,0.1l-0.2,1c0,0.1-0.1,0.1-0.2,0.1h-5.2
					c-0.1,0-0.1,0-0.1-0.1l1.2-6.9c0-0.1,0.1-0.1,0.2-0.1H114.5z"/>
			</g>
			<g id="GT">
				<g>
					<g>
						<g>
							<linearGradient id="SVGID_1_" gradientUnits="userSpaceOnUse" x1="15.3722" y1="55.9188" x2="118.3805" y2="-3.553">
								<stop  offset="0.5989" style="stop-color:#EE2E24"/>
								<stop  offset="0.677" style="stop-color:#D2251B"/>
								<stop  offset="0.8238" style="stop-color:#A2150D"/>
								<stop  offset="0.9362" style="stop-color:#850C03"/>
								<stop  offset="1" style="stop-color:#7A0800"/>
							</linearGradient>
							<path class="st1" d="M61.4,48.8l23.9-23.6H26.7c-10.8,0-20.4,6.5-23.8,9.1c2.2-2.1,6.9-6.8,9.1-9c3.4-3.4,6.8-5.2,14.4-5.2
								h105.7l-3.2,3.2c-1.2,1.2-2.8,1.9-4.6,1.9h-22.2l0,0c-0.2,0.2-18.4,18.2-20.1,19.9c-2.4,2.4-5.7,3.7-9.3,3.7H61.4z"/>
							<path class="st2" d="M131.9,20.3l-3,3c-1.2,1.2-2.8,1.9-4.5,1.9h-22.2h-0.1l-0.1,0c-0.2,0.2-18.4,18.2-20.1,19.9
								c-2.4,2.3-5.7,3.6-9.2,3.6H61.6l23.6-23.3l0.3-0.3h-0.4H37.6H26.7c-6.9,0-13.3,2.7-17.5,5.1c-2.2,1.2-4.1,2.4-5.4,3.4
								c2.4-2.4,6.3-6.2,8.3-8.1c2-2,3.8-3.2,5.8-3.9c2.2-0.8,4.9-1.2,8.5-1.2H131.9 M132.3,20.1H26.4c-7.2,0-10.7,1.5-14.4,5.2
								C9,28.2,1.7,35.4,1.7,35.4l0,0l0,0c0,0,11.8-10.1,25-10.1h10.9h47.5L61.2,48.9h11.5c3.5,0,6.8-1.3,9.3-3.7
								c1.7-1.7,20.1-19.9,20.1-19.9h22.2c1.7,0,3.4-0.7,4.6-1.9L132.3,20.1L132.3,20.1z"/>
						</g>
					</g>
					<path class="st2" d="M70.3,30.3H39.8c-1.9,0-3.6,0.8-4.9,2.1l-1.8,1.7h20.2c-7.5,7.3-7.6,7.4-15.7,7.4H22.2l-7.5,7.4h31
						c3.1,0,6.9-1.2,9.6-3.8L70.3,30.3z"/>
				</g>
				<g>
					<linearGradient id="SVGID_2_" gradientUnits="userSpaceOnUse" x1="20.4428" y1="35.0755" x2="16.6716" y2="25.3334">
						<stop  offset="0" style="stop-color:#EE2E24"/>
						<stop  offset="0.1815" style="stop-color:#D0291E"/>
						<stop  offset="0.5042" style="stop-color:#A12116"/>
						<stop  offset="0.7514" style="stop-color:#831C10"/>
						<stop  offset="0.8917" style="stop-color:#781A0E"/>
						<stop  offset="1" style="stop-color:#781A0E"/>
					</linearGradient>
					<path class="st3" d="M28.9,29.2c2.7-2.7,5.5-3.8,9-3.8H26.7c-13.3,0-25,10.1-25,10.1L0,37.1h21C21,37.1,25.9,32.2,28.9,29.2z"
					/>
				</g>
			</g>
		</g>
	</g>
	<g>
		<path class="st5" d="M114,8.4l1.4-3.6c1.4-3.5,3.7-4.4,7-4.4h9.9l-1.2,3.1h-8.6c-2,0-2.7,0.9-3.3,2.4l-0.5,1.3
			c-0.7,1.8-0.6,2.4,1.2,2.4h8.8l-1.2,3.1h-9.9C114.3,12.8,112.6,11.9,114,8.4z"/>
		<polygon class="st0" points="79.6,0.5 78.4,3.6 84,3.6 80.5,12.7 85.1,12.7 88.7,3.6 94.3,3.6 95.5,0.5 		"/>
		<path class="st0" d="M112,3.5l1.2-3H98.6l0,0h0L95,9.7h0l-0.6,1.5c0,0,0,0,0,0l-0.6,1.5h4.4l0,0h10.2l1.2-3H99.4l0.6-1.6l10.2,0
			l1.2-3h-10.2l0.6-1.6L112,3.5z"/>
		<path class="st0" d="M32.5,1.2c-0.1-0.5-0.4-0.8-1-0.8h-3.2c-0.5,0-1.1,0.3-1.6,0.8L16,12.7l5.2,0l7.3-8.3
			c0.3,2.4,0.7,4.4,0.9,5.8c0.4,2.6,0.4,2.6,0.5,2.6l4.5,0L32.5,1.2z"/>
		<path class="st0" d="M73.3,1.2c-0.1-0.5-0.4-0.8-1-0.8h-3.2c-0.5,0-1.1,0.3-1.6,0.8L56.9,12.7l5.2,0l7.3-8.3
			c0.3,2.4,0.7,4.4,0.9,5.8c0.4,2.6,0.4,2.6,0.5,2.6l4.5,0L73.3,1.2z"/>
		<path class="st0" d="M54.2,0.5l-3,8.7l-3.3-8.1c-0.1-0.3-0.4-0.6-1-0.6h-5.3L37,12.7h4.4l3-8.7l3.5,8.7l0,0h6l4.7-12.2H54.2z"/>
		<g>
			<polygon class="st0" points="0,12.7 4.5,12.7 6.1,8.7 15.8,8.7 17,5.5 2.8,5.5 			"/>
			<path class="st0" d="M6.2,0.5c-0.8,0-1.7,0.6-2.1,1.5L3.5,3.8h15.1l1.3-3.3L6.2,0.5z"/>
		</g>
	</g>
</g>
		</g>
	</g>
</svg>
