<?xml version="1.0" encoding="UTF-8" standalone="no"?>
<svg width="120px" height="48px" xmlns="http://www.w3.org/2000/svg" xmlns:xlink="http://www.w3.org/1999/xlink" clip-rule="evenodd" stroke-miterlimit="10" viewBox="0 0 283.46 283.46">
    <desc>SVG generated by Lineform</desc>
    <defs/>
    <g>
        <path d="M 12.31 12.31 L 269.94 12.31 L 269.94 269.94 L 12.31 269.94 Z M 22.40 22.35 C 22.39 101.30 22.40 180.25 22.39 259.20 C 101.65 259.19 180.90 259.20 260.15 259.19 C 260.15 180.25 260.15 101.30 260.15 22.36 C 180.90 22.35 101.65 22.36 22.40 22.35 M 113.41 36.17 C 129.80 36.17 146.18 36.13 162.57 36.10 C 157.96 44.80 154.14 53.95 151.56 63.46 C 148.51 74.42 147.10 85.79 146.95 97.15 C 146.65 116.88 150.14 136.38 152.85 155.86 C 155.15 172.33 156.80 189.09 154.84 205.69 C 153.22 220.01 148.77 234.01 141.83 246.65 C 132.45 246.68 123.07 246.74 113.69 246.78 C 113.58 176.58 113.50 106.37 113.41 36.17 M 214.06 36.10 C 224.11 36.10 234.16 36.11 244.22 36.10 C 244.04 106.24 243.82 176.39 243.68 246.53 C 226.80 246.64 209.93 246.68 193.05 246.77 C 199.69 233.39 204.11 218.94 206.30 204.17 C 208.83 187.40 208.61 170.34 207.28 153.47 C 205.92 135.58 203.31 117.81 202.24 99.89 C 201.39 84.98 201.67 69.75 205.80 55.29 C 207.72 48.58 210.47 42.09 214.06 36.10 " fill-rule="non-zero" fill="#19125C"/>
        <path d="M 22.40 22.35 C 101.65 22.36 180.90 22.35 260.15 22.36 C 260.15 101.30 260.15 180.25 260.15 259.19 C 180.90 259.20 101.65 259.19 22.39 259.20 C 22.40 180.25 22.39 101.30 22.40 22.35 M 60.40 36.15 C 60.08 50.91 60.23 65.68 60.23 80.44 C 63.78 80.43 67.34 80.45 70.89 80.44 C 70.91 65.68 70.90 50.92 70.90 36.17 C 67.40 36.16 63.90 36.18 60.40 36.15 M 113.41 36.17 C 113.50 106.37 113.58 176.58 113.69 246.78 C 123.07 246.74 132.45 246.68 141.83 246.65 C 148.77 234.01 153.22 220.01 154.84 205.69 C 156.80 189.09 155.15 172.33 152.85 155.86 C 150.14 136.38 146.65 116.88 146.95 97.15 C 147.10 85.79 148.51 74.42 151.56 63.46 C 154.14 53.95 157.96 44.80 162.57 36.10 C 146.18 36.13 129.80 36.17 113.41 36.17 M 214.06 36.10 C 210.47 42.09 207.72 48.58 205.80 55.29 C 201.67 69.75 201.39 84.98 202.24 99.89 C 203.31 117.81 205.92 135.58 207.28 153.47 C 208.61 170.34 208.83 187.40 206.30 204.17 C 204.11 218.94 199.69 233.39 193.05 246.77 C 209.93 246.68 226.80 246.64 243.68 246.53 C 243.82 176.39 244.04 106.24 244.22 36.10 C 234.16 36.11 224.11 36.10 214.06 36.10 M 178.36 36.96 C 172.08 44.90 165.78 52.83 159.42 60.70 C 162.96 60.86 166.50 60.57 170.05 60.61 C 169.89 85.96 169.85 111.32 169.75 136.67 C 169.60 173.36 169.44 210.06 169.36 246.76 C 175.10 246.68 180.85 246.64 186.61 246.61 C 186.60 230.23 186.54 213.85 186.52 197.47 C 186.47 189.11 186.56 180.74 186.41 172.38 C 186.36 135.18 186.28 97.99 186.20 60.80 C 189.43 60.61 192.66 60.68 195.89 60.61 C 190.63 53.50 185.43 46.35 180.18 39.22 C 179.59 38.46 179.12 37.59 178.36 36.96 M 38.49 91.30 C 38.47 106.48 38.48 121.66 38.48 136.84 C 42.55 136.72 46.61 136.80 50.67 136.64 C 50.68 129.32 50.88 122.01 50.91 114.70 C 54.22 122.09 57.68 129.42 61.05 136.80 C 64.19 136.80 67.33 136.79 70.48 136.80 C 74.32 129.48 78.20 122.19 81.96 114.82 C 82.15 122.18 82.18 129.54 82.27 136.90 C 86.05 136.92 89.84 136.89 93.62 136.91 C 93.66 121.70 93.80 106.49 93.83 91.27 C 89.90 91.25 85.98 91.18 82.05 91.18 C 76.42 100.53 70.78 109.86 65.12 119.19 C 60.43 110.10 55.94 100.91 51.32 91.78 C 51.17 91.38 50.89 91.21 50.47 91.27 C 46.47 91.29 42.48 91.27 38.49 91.30 M 37.06 156.63 C 35.82 161.38 37.41 166.79 41.17 169.97 C 43.78 172.28 47.34 173.27 50.78 173.23 C 58.80 173.29 66.82 173.37 74.84 173.47 C 77.41 173.56 80.10 173.21 82.54 174.21 C 83.84 174.70 85.23 175.69 85.33 177.20 C 85.47 178.74 84.20 179.93 82.91 180.52 C 80.70 181.50 78.21 181.42 75.85 181.29 C 63.24 181.19 50.64 181.06 38.03 180.90 C 38.00 184.63 38.09 188.36 38.13 192.09 C 52.19 192.06 66.26 192.06 80.32 192.04 C 83.65 192.01 87.06 191.09 89.65 188.94 C 95.82 184.04 96.59 173.80 91.16 168.08 C 88.77 165.49 85.18 164.25 81.71 164.27 C 72.77 164.25 63.84 164.08 54.90 164.05 C 52.63 164.02 50.15 163.60 48.46 161.97 C 47.58 161.14 47.55 159.57 48.56 158.84 C 50.32 157.40 52.75 157.29 54.92 157.16 C 67.54 157.18 80.15 157.35 92.77 157.37 C 92.76 154.04 92.78 150.72 92.76 147.39 C 77.96 147.38 63.16 147.39 48.36 147.39 C 43.09 147.50 38.23 151.50 37.06 156.63 M 59.82 202.03 C 52.16 216.92 44.49 231.81 36.83 246.71 C 41.28 246.81 45.73 246.77 50.18 246.78 C 54.72 237.97 59.25 229.17 63.79 220.37 C 68.59 229.16 73.54 237.88 78.33 246.68 C 83.07 246.74 87.80 246.72 92.54 246.72 C 84.54 231.82 76.57 216.90 68.58 202.00 C 65.66 202.00 62.74 201.99 59.82 202.03 " fill-rule="non-zero" fill="#FEFFFE"/>
        <path d="M 60.40 36.15 C 63.90 36.18 67.40 36.16 70.90 36.17 C 70.90 50.92 70.91 65.68 70.89 80.44 C 67.34 80.45 63.78 80.43 60.23 80.44 C 60.23 65.68 60.08 50.91 60.40 36.15 M 178.36 36.96 C 179.12 37.59 179.59 38.46 180.18 39.22 C 185.43 46.35 190.63 53.50 195.89 60.61 C 192.66 60.68 189.43 60.61 186.20 60.80 C 186.28 97.99 186.36 135.18 186.41 172.38 C 186.56 180.74 186.47 189.11 186.52 197.47 C 186.54 213.85 186.60 230.23 186.61 246.61 C 180.85 246.64 175.10 246.68 169.36 246.76 C 169.44 210.06 169.60 173.36 169.75 136.67 C 169.85 111.32 169.89 85.96 170.05 60.61 C 166.50 60.57 162.96 60.86 159.42 60.70 C 165.78 52.83 172.08 44.90 178.36 36.96 M 38.49 91.30 C 42.48 91.27 46.47 91.29 50.47 91.27 C 50.89 91.21 51.17 91.38 51.32 91.78 C 55.94 100.91 60.43 110.10 65.12 119.19 C 70.78 109.86 76.42 100.53 82.05 91.18 C 85.98 91.18 89.90 91.25 93.83 91.27 C 93.80 106.49 93.66 121.70 93.62 136.91 C 89.84 136.89 86.05 136.92 82.27 136.90 C 82.18 129.54 82.15 122.18 81.96 114.82 C 78.20 122.19 74.32 129.48 70.48 136.80 C 67.33 136.79 64.19 136.80 61.05 136.80 C 57.68 129.42 54.22 122.09 50.91 114.70 C 50.88 122.01 50.68 129.32 50.67 136.64 C 46.61 136.80 42.55 136.72 38.48 136.84 C 38.48 121.66 38.47 106.48 38.49 91.30 M 37.06 156.63 C 38.23 151.50 43.09 147.50 48.36 147.39 C 63.16 147.39 77.96 147.38 92.76 147.39 C 92.78 150.72 92.76 154.04 92.77 157.37 C 80.15 157.35 67.54 157.18 54.92 157.16 C 52.75 157.29 50.32 157.40 48.56 158.84 C 47.55 159.57 47.58 161.14 48.46 161.97 C 50.15 163.60 52.63 164.02 54.90 164.05 C 63.84 164.08 72.77 164.25 81.71 164.27 C 85.18 164.25 88.77 165.49 91.16 168.08 C 96.59 173.80 95.82 184.04 89.65 188.94 C 87.06 191.09 83.65 192.01 80.32 192.04 C 66.26 192.06 52.19 192.06 38.13 192.09 C 38.09 188.36 38.00 184.63 38.03 180.90 C 50.64 181.06 63.24 181.19 75.85 181.29 C 78.21 181.42 80.70 181.50 82.91 180.52 C 84.20 179.93 85.47 178.74 85.33 177.20 C 85.23 175.69 83.84 174.70 82.54 174.21 C 80.10 173.21 77.41 173.56 74.84 173.47 C 66.82 173.37 58.80 173.29 50.78 173.23 C 47.34 173.27 43.78 172.28 41.17 169.97 C 37.41 166.79 35.82 161.38 37.06 156.63 M 59.82 202.03 C 62.74 201.99 65.66 202.00 68.58 202.00 C 76.57 216.90 84.54 231.82 92.54 246.72 C 87.80 246.72 83.07 246.74 78.33 246.68 C 73.54 237.88 68.59 229.16 63.79 220.37 C 59.25 229.17 54.72 237.97 50.18 246.78 C 45.73 246.77 41.28 246.81 36.83 246.71 C 44.49 231.81 52.16 216.92 59.82 202.03 " fill-rule="non-zero" fill="#D51B0D"/>
    </g>
</svg>
