<?xml version="1.0" encoding="UTF-8"?>
<svg width="120px" height="51.35px" version="1.1" viewBox="0 0 45.5 19.47" xmlns="http://www.w3.org/2000/svg" xmlns:dc="http://purl.org/dc/elements/1.1/" xmlns:rdf="http://www.w3.org/1999/02/22-rdf-syntax-ns#">
 <defs>
  <clipPath id="vlpa">
   <path d="m688.3 21.2h123.4v60.54h-123.4z"/>
  </clipPath>
 </defs>
 <title>FIA World Endurance Championship logo</title>
 <metadata>
  <rdf:RDF>
    <dc:format>image/svg+xml</dc:format>
    <dc:type rdf:resource="http://purl.org/dc/dcmitype/StillImage"/>
    <dc:title/>
  </rdf:RDF>
 </metadata>
 <g transform="translate(-80.07 -158.5)">
  <g transform="matrix(.3528 0 0 -.3528 -161.8 190)">
   <g clip-path="url(#vlpa)">
    <g transform="translate(751.3 66.53)">
     <path d="m0 0c0.22 0.192 0.442 0.373 0.664 0.549 3.324 2.911 11.22 8.282 22.78 8.696 0.086 3e-3 0.103-0.074 5e-3 -0.091-2.194-0.37-8.577-1.683-13.92-5.071 2.018 0.39 3.602 0.356 4.289 0.356h8.354c1.736 0 4.426 0.112 6.139 1.5 3.944 3.477 8.51 5.209 8.51 5.209-24.47 4.07-35.45-4.165-43.99-11.26-8.539-7.097-16.98-8.732-22.13-8.6l3.77 8.489c-14.34-10.58-25.95-8.707-25.95-8.707 4.551 13.05 19.92 16.47 19.92 16.47-0.711 0.374-6.2 1.322-13.74-1.406-12.6-4.85-17.29-14.65-17.29-21.32 12.15-1.504 21 0.318 26.65 4.436 0.05 0.036 0.096 2e-3 0.066-0.064-0.029-0.066-2.13-4.508-2.13-4.508 7.856-1.373 18.9-1.637 28.59 6.99 1.748 1.546 4.788 4.303 9.416 8.335" style="fill:#0649a1"/>
    </g>
    <g transform="translate(753.9 65.08)">
     <path d="m0 0c-2.903-2.394-3.987-3.312-3.987-3.312h19.41c1.785 0 3.759-0.215 4.66 2.128 0.879 2.286 1.829 3.55 1.829 3.55h-13.86c-2.056 0-5.248-0.048-8.059-2.366" style="fill:#0649a1"/>
    </g>
    <g transform="translate(744.2 55.51)">
     <path d="m0 0c-2.904-2.69-4.74-3.722-4.74-3.722h25.8c1.785 0 3.745-0.055 4.858 2.474 1.112 2.53 1.682 3.906 1.682 3.906h-19.54c-2.056 0-5.247-0.053-8.058-2.658" style="fill:#0649a1"/>
    </g>
    <g transform="translate(779.6 67.63)">
     <path d="m0 0c-6.827-9.646 0.725-17.58 12.64-16.47 4.653 0.6 8.528 2.371 9.875 6.791 0 0-4.059-1.998-9.112-1.998s-7.939 2.074-7.939 5.054 2.925 9.249 18.77 10.21c5.842 0.452 5.92 1.735 7.877 5.944-5.824 0.849-24.23 1.182-32.11-9.524" style="fill:#0649a1"/>
    </g>
   </g>
  </g>
 </g>
</svg>
